<svg version="1.2" xmlns="http://www.w3.org/2000/svg" viewBox="0 0 40 36" width="40" height="36"><defs><clipPath clipPathUnits="userSpaceOnUse" id="cp1"><path d="m-288-133h1366v768h-1366z"/></clipPath></defs><style>.a{opacity:.2;fill:#ff6a00}</style><g clip-path="url(#cp1)"><path class="a" d="m32.5 36c-4.1 0-7.5-3.4-7.5-7.5 0-4.1 3.4-7.5 7.5-7.5 4.1 0 7.5 3.4 7.5 7.5 0 4.1-3.4 7.5-7.5 7.5z"/><path  d="m0.5 4.6q0.1-0.1 0.1-0.2c0.3-1.1 1.2-1.8 2.3-1.8q1.1 0 2.3 0c0.5 0 0.8 0.3 0.8 0.8 0 0.4-0.3 0.7-0.8 0.7q-1.1 0-2.1 0-1.1 0-1.1 1.1 0 1.5 0 3h31.4q0-1 0-1.9 0-0.7 0-1.3c0-0.5-0.3-0.9-0.8-0.9-0.6 0-1.1 0-1.7 0q0 0.5 0 0.9c0 0.9-0.7 1.5-1.6 1.5q-0.6 0.1-1.3 0c-0.7 0-1.4-0.6-1.4-1.3-0.1-0.5 0.1-0.8 0.5-0.9 0.4-0.1 0.8 0.1 0.9 0.6q0 0 0.1 0.1h1.3v-3.4h-1.3q0 0.1-0.1 0.1c-0.1 0.6-0.5 0.8-0.9 0.7-0.4-0.1-0.6-0.5-0.5-1 0.1-0.7 0.7-1.3 1.5-1.3q0.6 0 1.3 0c0.8 0.1 1.4 0.7 1.5 1.5 0 0.3 0 0.6 0 1q0.8 0 1.6 0c1 0 1.9 0.6 2.3 1.6q0.1 0.4 0.1 0.9 0 7.5 0 15.1c0 0.5-0.3 0.9-0.7 0.9-0.5 0-0.8-0.4-0.8-0.9q0-5 0-9.9 0-0.2 0-0.5h-31.4v0.4q0 8.9 0 17.9c0 0.8 0.3 1.1 1.2 1.1q10 0 20.1 0 0.3 0 0.6 0.1c0.3 0.1 0.5 0.4 0.5 0.8-0.1 0.3-0.3 0.6-0.7 0.6q-0.2 0-0.4 0c-6.6 0-13.2 0-19.8 0q-2.4 0.1-3-2 0-12.1 0-24.1z"/><path fill-rule="evenodd" d="m38.6 28c0 3.6-3 6.7-6.7 6.7-3.7 0-6.7-3.1-6.7-6.7 0-3.8 3-6.8 6.7-6.8 3.7 0 6.7 3 6.7 6.8zm-1.5-0.1c0-2.8-2.3-5.2-5.2-5.2-2.9 0-5.2 2.3-5.3 5.2 0 2.9 2.4 5.3 5.3 5.3 2.9 0 5.2-2.4 5.2-5.3z"/><path  d="m23.5 4.1q0 0.4 0 0.8c0 1-0.6 1.6-1.6 1.6q-0.6 0.1-1.2 0c-0.7 0-1.3-0.5-1.4-1.1-0.2-0.6 0-1 0.5-1.1 0.4-0.1 0.8 0.1 0.9 0.7h1.3v-3.4q-0.6 0-1.1 0c-0.1 0-0.2 0.1-0.2 0.2-0.2 0.5-0.5 0.7-0.9 0.6-0.4-0.1-0.7-0.5-0.6-1 0.2-0.7 0.8-1.2 1.5-1.3q0.7 0 1.3 0c0.8 0.1 1.5 0.7 1.5 1.5q0 0.5 0 1 0.3 0 0.5 0 1.6 0 3.2 0c0.7 0 1 0.6 0.7 1.1-0.1 0.3-0.4 0.4-0.7 0.4q-1.6 0-3.2 0-0.2 0-0.5 0z"/><path  d="m8.9 2.6q1.3 0 2.6 0 0.5 0 1.1 0c0.4 0 0.8 0.3 0.8 0.8-0.1 0.4-0.4 0.7-0.8 0.7-1.2 0-2.5 0-3.7 0q0 0.4 0 0.8c-0.1 1-0.7 1.6-1.7 1.6q-0.6 0-1.2 0c-0.7 0-1.2-0.4-1.4-1.1-0.2-0.6 0-1 0.5-1.1 0.5-0.2 0.8 0.1 0.9 0.7h1.3v-3.4q-0.6 0-1.2 0 0 0.1-0.1 0.1c-0.1 0.6-0.5 0.8-0.9 0.7-0.5-0.1-0.7-0.6-0.5-1.2 0.2-0.6 0.8-1 1.4-1.1q0.7 0 1.4 0c0.8 0.1 1.4 0.7 1.5 1.5 0 0.3 0 0.6 0 1z"/><path  d="m13.4 5h1.3v-3.4h-1.3q0 0.2-0.1 0.3c-0.1 0.4-0.4 0.6-0.8 0.5-0.4 0-0.6-0.3-0.6-0.7 0-0.8 0.6-1.5 1.4-1.6q0.7 0 1.4 0c0.8 0.1 1.5 0.7 1.5 1.6q0 0.4 0 0.9 0.9 0 1.7 0 1 0 2 0c0.5 0 0.8 0.3 0.8 0.8 0 0.4-0.3 0.7-0.8 0.7q-1.8 0-3.7 0 0 0.4 0 0.8c0 1-0.6 1.6-1.6 1.6q-0.7 0.1-1.3 0c-0.8 0-1.4-0.7-1.4-1.5 0-0.4 0.2-0.7 0.6-0.7 0.4-0.1 0.7 0.1 0.8 0.5q0.1 0.1 0.1 0.2z"/><path  d="m6.7 25.7q-0.7 0-1.4 0c-0.4 0-0.8-0.3-0.8-0.8 0-0.4 0.4-0.7 0.8-0.7q1.4 0 2.8 0c0.5 0 0.8 0.3 0.8 0.7-0.1 0.5-0.4 0.8-0.8 0.8q-0.7 0-1.4 0z"/><path  d="m28.7 20.2q-0.7 0.1-1.4 0c-0.4 0-0.7-0.3-0.7-0.7-0.1-0.4 0.3-0.7 0.7-0.7q1.4-0.1 2.8 0c0.5 0 0.8 0.3 0.8 0.7 0 0.4-0.3 0.7-0.8 0.7q-0.7 0.1-1.4 0z"/><path  d="m14 25.7q-0.7 0-1.4 0c-0.4 0-0.7-0.3-0.7-0.8 0-0.4 0.3-0.7 0.7-0.7q1.4 0 2.8 0c0.5 0 0.8 0.3 0.8 0.7 0 0.4-0.3 0.8-0.8 0.8q-0.7 0-1.4 0z"/><path  d="m14.1 18.8q0.6 0 1.3 0c0.5 0 0.8 0.3 0.8 0.7 0 0.4-0.3 0.7-0.8 0.7q-1.4 0.1-2.7 0c-0.5 0-0.8-0.2-0.8-0.7 0-0.4 0.3-0.7 0.8-0.7q0.7 0 1.4 0z"/><path  d="m21.4 20.2q-0.7 0.1-1.4 0c-0.5 0-0.8-0.3-0.8-0.7 0-0.4 0.3-0.7 0.8-0.7q1.4-0.1 2.8 0c0.4 0 0.7 0.3 0.7 0.7 0 0.4-0.3 0.7-0.8 0.7q0 0 0 0-0.7 0-1.3 0z"/><path  d="m21.4 25.7q-0.7 0-1.4 0c-0.5 0-0.8-0.3-0.8-0.8 0-0.4 0.3-0.7 0.8-0.7q1.4 0 2.8 0c0.4 0 0.7 0.3 0.7 0.7 0 0.5-0.3 0.8-0.8 0.8q-0.6 0-1.3 0z"/><path  d="m21.4 14.8q-0.7 0-1.4 0c-0.5 0-0.8-0.3-0.8-0.7 0-0.4 0.3-0.8 0.8-0.8q1.4 0 2.8 0c0.4 0.1 0.7 0.4 0.7 0.8 0 0.4-0.3 0.7-0.7 0.7q-0.7 0-1.4 0z"/><path  d="m6.7 20.2q-0.7 0.1-1.4 0c-0.5 0-0.8-0.3-0.8-0.7 0-0.4 0.3-0.7 0.8-0.7q1.4-0.1 2.8 0c0.5 0 0.7 0.3 0.8 0.7 0 0.4-0.3 0.7-0.8 0.7q-0.7 0.1-1.4 0z"/><path  d="m28.7 14.8q-0.7 0-1.4 0c-0.4 0-0.7-0.3-0.7-0.7-0.1-0.4 0.2-0.8 0.7-0.8q1.4 0 2.8 0c0.5 0 0.8 0.4 0.8 0.8 0 0.4-0.3 0.7-0.8 0.7q-0.1 0-0.1 0-0.6 0-1.3 0z"/><path  d="m6.7 14.8q-0.7 0-1.4 0c-0.4 0-0.8-0.3-0.8-0.7 0-0.4 0.3-0.8 0.8-0.8q1.4 0 2.7 0c0.5 0 0.9 0.3 0.9 0.8 0 0.4-0.4 0.7-0.9 0.7q-0.7 0-1.3 0z"/><path  d="m14 14.8q-0.6 0-1.3 0c-0.5 0-0.8-0.3-0.8-0.7 0-0.5 0.3-0.8 0.8-0.8q1.3 0 2.7 0c0.5 0 0.8 0.4 0.8 0.8 0 0.4-0.3 0.7-0.8 0.7q-0.7 0-1.4 0z"/><path  d="m31.8 28.7c-0.1-0.1-0.3-0.2-0.5-0.3q-1.4-1.4-2.9-2.9c-0.3-0.3-0.3-0.8 0-1.1 0.3-0.3 0.7-0.3 1.1 0.1q1.2 1.1 2.3 2.3c0.2 0.2 0.4 0.3 0.7 0.2q0.6-0.2 1.2-0.3c0.4-0.1 0.8 0.1 0.9 0.5 0.1 0.4-0.1 0.8-0.6 0.9-0.7 0.2-1.4 0.4-2.2 0.6z"/></g></svg>