<svg version="1.2" xmlns="http://www.w3.org/2000/svg" viewBox="0 0 40 39" width="40" height="39"><defs><clipPath clipPathUnits="userSpaceOnUse" id="cp1"><path d="m-1106-131h1366v768h-1366z"/></clipPath></defs><style>.a{fill:#fadcc7}</style><g clip-path="url(#cp1)"><path class="a" d="m6.1 32.4v-9.5q0.2 0 0.4 0 3.6 0 7.2 0 0.2 0 0.5 0.1 4.1 1.7 8.2 3.4c0.8 0.3 1.2 1 1.3 1.8 0 1-0.4 1.7-1.2 2.1-0.6 0.3-1.2 0.3-1.8 0.1q-2.7-1-5.3-2-0.1-0.1-0.3-0.1c-0.5-0.2-1 0-1.1 0.4-0.2 0.5 0 0.9 0.5 1.1q1.3 0.5 2.5 1c1.8 0.7 3.6 1.3 5.3 2 2.3 1 4.6 1.1 7 0.5 2.6-0.6 5.2-1.2 7.8-1.8 1.1-0.3 2.1 0.3 2.4 1.5 0.3 1-0.3 2.1-1.5 2.4q-5.1 1.3-10.2 2.5c-1.7 0.5-3.4 0.3-5.1-0.3q-6.3-2.5-12.6-5-0.5-0.1-1-0.2c-1 0-2 0-3 0z"/><path fill-rule="evenodd" d="m0.3 19c0.2-0.4 0.6-0.5 1-0.5q1.3 0 2.6 0 0.2 0 0.4 0c0-0.6-0.1-1.2-0.1-1.8q-0.2-3.7 1.3-7.1c0.2-0.4 0.6-0.6 1-0.4 0.4 0.2 0.6 0.6 0.4 1q-1.3 2.9-1.3 6c0 0.7 0.1 1.4 0.2 2.1q0 0.3 0.3 0.2c1-0.1 1.3 0.3 1.2 1.3q0 0.2 0 0.5h1.7q0-0.3 0-0.4 0-3.4 0-6.7c0-0.7 0.2-1 0.9-1q2.6 0 5.2 0 0.2 0 0.5 0 0-0.2 0-0.4 0-1.8 0-3.5 0-0.9 0.8-0.9 3.2 0 6.4 0c0.6 0 0.9 0.3 0.9 0.9q0 3.6 0 7.2 0 0.2 0 0.5 0.2 0 0.4 0 2.6 0 5.1 0c0.8 0 1 0.3 1 1q0 3.7 0 7.4 0 0.2 0 0.5 0.2-0.1 0.3-0.2c2.4-3.1 3.3-6.6 2.9-10.5q-0.1-0.5-0.2-1c-0.1-0.5 0.2-0.9 0.6-1 0.4-0.1 0.8 0.2 0.9 0.7 0.9 4.8-0.2 9.1-3.3 13-0.1 0.2-0.3 0.4-0.5 0.5-0.9 0.6-0.6 1.5-0.6 2.3q1.7-0.4 3.4-0.8c0.8-0.2 1.6-0.3 2.4 0q1.6 0.7 2 2.3 0 0.2 0.1 0.3v0.9q-0.1 0.1-0.1 0.1c-0.3 1.4-1.2 2.3-2.5 2.6q-4.3 1.1-8.6 2.2-2.9 0.7-5.6-0.3c-3.3-1.3-6.6-2.6-9.8-3.9-1-0.4-1.9-0.6-2.9-0.5-0.4 0-0.9 0-1.4 0q0 0.2 0 0.4c0 0.8-0.2 1-0.9 1q-2.6 0-5.2 0c-0.4 0-0.7-0.1-0.9-0.5zm7.1 11c0.9 0 1.7 0 2.6 0q0.4 0 0.9 0.2 5.5 2.2 11 4.3c1.5 0.6 3 0.7 4.5 0.4q4.4-1.2 8.9-2.3c1-0.3 1.6-1.2 1.3-2.1-0.2-1-1.1-1.5-2.1-1.3-2.3 0.5-4.6 1-6.8 1.6-2.1 0.5-4.1 0.4-6.1-0.4-1.6-0.6-3.1-1.2-4.7-1.8q-1.1-0.4-2.2-0.8c-0.4-0.2-0.6-0.6-0.4-1 0.1-0.4 0.5-0.6 1-0.4q0.1 0 0.2 0.1 2.3 0.9 4.6 1.8 0.9 0.3 1.6-0.1 1.1-0.6 1.1-1.8c-0.1-0.8-0.5-1.4-1.2-1.7q-3.6-1.4-7.2-2.9-0.2-0.1-0.4-0.1-3.2 0-6.3 0-0.2 0-0.3 0zm9.7-21.2q0 0.2 0 0.3 0 5.9 0 11.9c0 0.2 0.1 0.3 0.3 0.4q2.1 0.9 4.2 1.7 0.2 0.1 0.5 0.3v-14.6zm6.6 8.7q0 0.1 0 0.2 0 3.3 0 6.6c0 0.2 0.1 0.3 0.2 0.5 0.5 1 0.6 2 0.1 3.1-0.2 0.4-0.3 0.8-0.3 1.3 0 0.2 0.1 0.3 0.3 0.3 1.7 0.3 3.2-0.1 4.8-0.5v-11.5zm-21.9 2.5v11.4h4.1v-11.4zm8.7 0.2q1.4 0 2.8 0c0.8 0 1.5 0 2.2 0.4q0 0 0.1 0v-6.9h-5.1z"/><path  d="m19.6 0.6c1.9 0.1 3.6 0.4 5.3 1 0.5 0.2 0.7 0.6 0.6 1-0.2 0.4-0.6 0.6-1.1 0.4q-7.8-2.6-14.1 2.6c-0.3 0.3-0.6 0.4-0.9 0.2-0.3-0.1-0.5-0.4-0.4-0.7 0-0.2 0.1-0.4 0.3-0.5 2.2-2 4.7-3.2 7.7-3.7 0.8-0.2 1.7-0.2 2.6-0.3z"/><path  d="m33.8 3.7c0 0.1-0.1 0.3-0.2 0.5q-3 3.4-6 6.8c-0.3 0.4-0.8 0.5-1.1 0.2-0.3-0.3-0.3-0.8 0-1.1q3-3.5 6-6.9c0.2-0.3 0.5-0.4 0.9-0.3 0.3 0.1 0.4 0.4 0.4 0.8z"/><path fill-rule="evenodd" d="m32 8c1 0 1.8 0.8 1.8 1.9 0 1-0.8 1.8-1.8 1.8-1 0-1.9-0.8-1.9-1.8 0-1.1 0.9-1.9 1.9-1.9zm-0.1 2.3q0.1 0 0.2 0c0.1-0.2 0.3-0.3 0.2-0.4 0-0.2-0.2-0.4-0.3-0.4-0.3 0-0.4 0.2-0.4 0.4 0.1 0.1 0.2 0.3 0.3 0.4z"/><path fill-rule="evenodd" d="m29.7 4.5c0 1-0.8 1.9-1.8 1.9-1 0-1.9-0.9-1.9-1.9 0-1 0.8-1.8 1.9-1.8 1-0.1 1.8 0.8 1.8 1.8zm-1.4 0.1q0-0.1 0-0.2c-0.1-0.1-0.3-0.3-0.4-0.2-0.2 0-0.3 0.2-0.4 0.3 0.1 0.1 0.2 0.3 0.4 0.4 0.1 0 0.3-0.2 0.4-0.3z"/><path  d="m7 7.3c0-0.4 0.4-0.7 0.8-0.7 0.4 0 0.7 0.3 0.7 0.8 0 0.4-0.3 0.7-0.7 0.7-0.4 0-0.8-0.3-0.8-0.8z"/></g></svg>