<svg version="1.2" xmlns="http://www.w3.org/2000/svg" viewBox="0 0 43 36" width="43" height="36"><defs><clipPath clipPathUnits="userSpaceOnUse" id="cp1"><path d="m-830-132h1366v768h-1366z"/></clipPath></defs><style>.a{opacity:.2;fill:#ff6a00}</style><g clip-path="url(#cp1)"><path class="a" d="m21 15c-4.4 0-8-3.4-8-7.5 0-4.1 3.6-7.5 8-7.5 4.4 0 8 3.4 8 7.5 0 4.1-3.6 7.5-8 7.5z"/><path fill-rule="evenodd" d="m0.3 24.8c0.2-0.6 0.3-1.3 0.6-1.9 1-2.1 2.8-3.4 5.1-3.5q2.6-0.1 5.2 0.1c0.7 0 1-0.1 1.4-0.7 1.1-1.6 2.8-2.5 4.8-2.5 2.6-0.1 5.1-0.1 7.7 0 2.1 0 3.7 1.1 4.9 2.9 0.2 0.3 0.3 0.4 0.7 0.3q0.3-0.1 0.7-0.1c1.8 0 3.6-0.1 5.3 0.1 2.7 0.2 4.8 2.4 5.2 5q0.1 0.2 0.1 0.3v7.6c-0.1 0.6-0.3 1.2-0.7 1.8-0.8 1-1.9 1.5-3.3 1.5q-16.8-0.1-33.7 0-0.4 0-0.7-0.1-1.4-0.1-2.4-1.2c-0.5-0.6-0.8-1.3-0.9-2q0-3.8 0-7.6zm13.6 8.4h14.5q0-0.1 0-0.2c0-3.6 0-7.1 0-10.6 0-2.2-1.6-3.7-3.8-3.7q-3.4 0-6.9 0c-0.6 0-1.2 0.1-1.7 0.4-1.5 0.6-2.1 1.8-2.1 3.4q0 5.2 0 10.3 0 0.2 0 0.4zm-2.5 0q0-0.3 0-0.5 0-5 0-9.9c0-1 0-1-0.9-1q-2 0-4 0-0.5 0-1 0.1c-1.7 0.5-2.8 1.9-2.8 3.7q0 3.1 0 6.2c0 1 0.5 1.4 1.5 1.4q3.4 0 6.8 0 0.2 0 0.4 0zm19.5 0q0.1 0 0.1 0 3.7 0 7.4 0c0.7 0 1.2-0.5 1.2-1.3q0-3.2 0-6.4c0-2-1.5-3.5-3.3-3.6-1.2-0.1-2.3-0.1-3.5-0.1-0.5 0-1 0.1-1.6 0.1-0.2 0-0.3 0.1-0.3 0.4q0 5.2 0 10.4 0 0.2 0 0.5z"/><path fill-rule="evenodd" d="m21.2 1.1c4 0 7.2 3.3 7.2 7.3 0 4-3.3 7.2-7.3 7.2-4 0-7.2-3.3-7.2-7.3 0-4 3.3-7.2 7.3-7.2zm-0.1 2.5c-2.6 0-4.8 2.1-4.8 4.8 0.1 2.6 2.2 4.8 4.8 4.8 2.7 0 4.9-2.2 4.9-4.8 0-2.7-2.2-4.8-4.9-4.8z"/><path fill-rule="evenodd" d="m3 13.3c0-3 2.5-5.5 5.5-5.4 3 0 5.4 2.4 5.4 5.4 0 3-2.5 5.4-5.5 5.4-3 0-5.4-2.5-5.4-5.4zm5.4-3c-1.6 0-3 1.4-2.9 3 0 1.6 1.3 3 3 3 1.6-0.1 3-1.4 2.9-3 0-1.7-1.3-3-3-3z"/><path fill-rule="evenodd" d="m39.3 13.3c-0.1 3.1-2.5 5.5-5.5 5.4-3-0.1-5.4-2.6-5.4-5.5 0.1-3 2.6-5.4 5.5-5.3 3.1 0 5.5 2.5 5.4 5.4zm-2.4 0c-0.1-1.7-1.4-3-3-3-1.7 0-3 1.4-3 3 0 1.6 1.4 3 3 3 1.6-0.1 3-1.4 3-3z"/></g></svg>