<svg xmlns="http://www.w3.org/2000/svg" width="18.781" height="25.293" viewBox="0 0 18.781 25.293">
  <g id="Group_3589" data-name="Group 3589" transform="translate(804.466 165.516)">
    <path id="Path_5115" data-name="Path 5115" d="M-799.88-162.833c0-.553.121-1.05.626-1.237a7.516,7.516,0,0,1,1.427-.239.819.819,0,0,0,.017-.128c.023-.784.22-.98.994-.98h3.47c.783,0,.981.19,1.007.966,0,.059.011.117.013.143a7.58,7.58,0,0,1,1.42.232c.507.183.637.675.637,1.243h.391c.935,0,1.87,0,2.805,0a1.162,1.162,0,0,1,1.287,1.278q0,9.984,0,19.968a1.143,1.143,0,0,1-1.291,1.261h-15.982a1.152,1.152,0,0,1-1.3-1.288q0-9.966,0-19.931a1.17,1.17,0,0,1,1.313-1.289C-802.007-162.834-800.963-162.833-799.88-162.833Zm.009.8c-1.142,0-2.224,0-3.307,0-.341,0-.393.208-.392.488q0,9.966,0,19.931c0,.429.063.494.494.494q7.991,0,15.982,0c.45,0,.509-.063.509-.517q0-9.929,0-19.858c0-.483-.054-.538-.524-.539q-1.421,0-2.842,0c-.1,0-.21.015-.33.024,0,.353,0,.672,0,.991-.007.378-.136.523-.507.523q-4.282.007-8.563,0c-.391,0-.515-.143-.52-.548C-799.874-161.356-799.87-161.673-799.87-162.031Zm.8.724h8c0-.6.02-1.176-.015-1.75a.5.5,0,0,0-.319-.359,5.143,5.143,0,0,0-.916-.017c-.008.1-.015.161-.016.221-.017.645-.05.677-.708.677H-797c-.776,0-.775,0-.815-.756a.7.7,0,0,0-.044-.147c-.281,0-.55,0-.82,0a.356.356,0,0,0-.4.385C-799.079-162.478-799.075-161.9-799.075-161.307Zm2.08-2.026h3.835v-1.261H-797Z" transform="translate(0 0)" fill="#fff" stroke="#fff" stroke-width="0.2"/>
    <path id="Path_5116" data-name="Path 5116" d="M-728.434-77.6a3.965,3.965,0,0,1-3.975-3.951,3.988,3.988,0,0,1,4-3.973,3.99,3.99,0,0,1,3.957,3.98A3.964,3.964,0,0,1-728.434-77.6Zm-1.379-3.5a1.866,1.866,0,0,1,.133-2.642,1.857,1.857,0,0,1,2.429-.061,1.875,1.875,0,0,1,.209,2.706l1.337,1.133a3.108,3.108,0,0,0-.642-4,3.188,3.188,0,0,0-4.345.164,3.071,3.071,0,0,0-.454,3.827Zm-.762,1.862a3.1,3.1,0,0,0,4.27.024,2.195,2.195,0,0,0-1.973-1.288A2.316,2.316,0,0,0-730.575-79.234Zm2.138-2.066a1.064,1.064,0,0,0,1.088-1.058,1.093,1.093,0,0,0-1.074-1.085,1.093,1.093,0,0,0-1.088,1.07A1.063,1.063,0,0,0-728.437-81.3Z" transform="translate(-66.644 -73.995)" fill="#fff" stroke="#fff" stroke-width="0.2"/>
    <path id="Path_5117" data-name="Path 5117" d="M-718.7,132.571h4.464c.122,0,.272-.031.361.027.128.083.289.232.292.356s-.146.286-.27.376c-.083.061-.237.032-.359.032h-8.965c-.1,0-.226.035-.289-.013-.142-.108-.35-.258-.349-.39s.209-.329.36-.369a3.122,3.122,0,0,1,.77-.022Z" transform="translate(-74.603 -275.974)" fill="#fff" stroke="#fff" stroke-width="0.2"/>
    <path id="Path_5118" data-name="Path 5118" d="M-718.894,46.665c-1.525,0-3.05,0-4.575,0-.29,0-.549-.055-.557-.384s.249-.409.539-.409q4.593,0,9.186,0c.288,0,.543.07.535.409s-.267.385-.554.383C-715.845,46.661-717.37,46.665-718.894,46.665Z" transform="translate(-74.408 -195.691)" fill="#fff" stroke="#fff" stroke-width="0.2"/>
    <path id="Path_5119" data-name="Path 5119" d="M-718.747,90.074h-4.461c-.123,0-.273.035-.362-.022-.129-.082-.293-.233-.294-.355s.158-.276.282-.369c.073-.054.214-.02.325-.02h9.033c.074,0,.147,0,.221,0,.254.008.424.164.377.391a.566.566,0,0,1-.369.354,4.539,4.539,0,0,1-.882.02Z" transform="translate(-74.558 -235.907)" fill="#fff" stroke="#fff" stroke-width="0.2"/>
    <path id="Path_5120" data-name="Path 5120" d="M-771.243,33.615l.968-1c.19-.2.4-.312.635-.079s.11.447-.081.638c-.382.382-.76.767-1.147,1.144-.278.271-.449.27-.725.01-.152-.143-.3-.292-.443-.442a.391.391,0,0,1-.049-.588c.2-.211.419-.157.608.04C-771.409,33.407-771.351,33.486-771.243,33.615Z" transform="translate(-29.793 -183.216)" fill="#fff" stroke="#fff" stroke-width="0.2"/>
    <path id="Path_5121" data-name="Path 5121" d="M-771.242,77.116l.979-1.007c.192-.2.406-.3.634-.075s.112.441-.081.634q-.587.582-1.169,1.17a.411.411,0,0,1-.667.009c-.154-.158-.308-.315-.466-.469a.378.378,0,0,1-.055-.581.385.385,0,0,1,.61.033A3.091,3.091,0,0,1-771.242,77.116Z" transform="translate(-29.808 -223.505)" fill="#fff" stroke="#fff" stroke-width="0.2"/>
    <path id="Path_5122" data-name="Path 5122" d="M-771.193,120.527c.326-.342.63-.663.937-.981.194-.2.417-.291.638-.059s.1.423-.083.607q-.59.584-1.173,1.175a.438.438,0,0,1-.7,0c-.148-.148-.3-.292-.443-.443a.393.393,0,0,1-.049-.589c.2-.216.415-.158.607.04C-771.4,120.342-771.323,120.405-771.193,120.527Z" transform="translate(-29.806 -263.741)" fill="#fff" stroke="#fff" stroke-width="0.2"/>
  </g>
</svg>
