<svg xmlns="http://www.w3.org/2000/svg" width="21.514" height="21.554" viewBox="0 0 21.514 21.554"><g transform="translate(-785.268 -341.188)"><path d="M-7071.558-12427.672a16.738,16.738,0,0,0,2.06-2.472c-.068-.205-1.236-4.394-1.236-4.394l-1.859-.658-4.011.35a16.755,16.755,0,0,0-.412,2.368c.068.274.932,3.273,1,3.548s.785,1.807,1.025,2.391,1.544,2.78,1.991,3.57,5.184,4.429,5.8,4.909a28.532,28.532,0,0,0,6.522,2.163c.927,0,2.128.273,2.369-.722a12.1,12.1,0,0,0,.206-3.5,2.482,2.482,0,0,0-1.613-2.4,7.784,7.784,0,0,0-3.6-.755c-.309.137-1.648.789-1.751,1.373s-.309,1.3-.858.687-4.634-3.982-4.634-3.982l-.79-1.956Z" transform="translate(7863 12777.773)" fill="#ffb580"/><path d="M15.841,5.418A4.9,4.9,0,0,1,19.71,9.287M15.841,1.5a8.816,8.816,0,0,1,7.787,7.778m-.98,7.817v2.939a1.959,1.959,0,0,1-2.135,1.959,19.385,19.385,0,0,1-8.453-3.007,19.1,19.1,0,0,1-5.877-5.877A19.385,19.385,0,0,1,3.176,4.615,1.959,1.959,0,0,1,5.125,2.48H8.064a1.959,1.959,0,0,1,1.959,1.685,12.577,12.577,0,0,0,.686,2.753,1.959,1.959,0,0,1-.441,2.067L9.024,10.228A15.673,15.673,0,0,0,14.9,16.1l1.244-1.244a1.959,1.959,0,0,1,2.067-.441,12.577,12.577,0,0,0,2.753.686A1.959,1.959,0,0,1,22.649,17.094Z" transform="translate(782.602 340.24)" fill="none" stroke="#000" stroke-linecap="round" stroke-linejoin="round" stroke-width="1"/></g></svg>