<svg xmlns="http://www.w3.org/2000/svg" width="18.761" height="17.197" viewBox="0 0 18.761 17.197">
  <g id="Group_3561" data-name="Group 3561" transform="translate(-804.62 -207.401)">
    <path id="Path_5105" data-name="Path 5105" d="M-7040.365-10579.064l-1.437-2.479h-13.655l-1.824,2.155,6.4,6.594,2.349.589,2.284-1.171,3.333-3.857,1.961-1.242Z" transform="translate(7863 10790)" fill="#ffb580"/>
    <path id="envelope_1_" data-name="envelope (1)" d="M14.852,1H3.908A3.913,3.913,0,0,0,0,4.908v9.38A3.913,3.913,0,0,0,3.908,18.2H14.852a3.913,3.913,0,0,0,3.908-3.908V4.908A3.913,3.913,0,0,0,14.852,1ZM3.908,2.563H14.852a2.345,2.345,0,0,1,2.173,1.475l-5.986,5.987a2.351,2.351,0,0,1-3.318,0L1.735,4.038A2.345,2.345,0,0,1,3.908,2.563ZM14.852,16.634H3.908a2.345,2.345,0,0,1-2.345-2.345V6.081l5.053,5.05a3.914,3.914,0,0,0,5.528,0L17.2,6.081v8.208A2.345,2.345,0,0,1,14.852,16.634Z" transform="translate(804.62 206.401)"/>
  </g>
</svg>
