<svg xmlns="http://www.w3.org/2000/svg" width="19.947" height="15.976" viewBox="0 0 19.947 15.976">
  <g id="envelope" transform="translate(0 -1)">
    <path id="Path_5103" data-name="Path 5103" d="M19.909,5.542l-7,6.113a4.6,4.6,0,0,1-5.878,0l-7-6.113A3.258,3.258,0,0,0,0,5.875v8.714A3.925,3.925,0,0,0,4.156,18.22H15.791a3.925,3.925,0,0,0,4.156-3.631V5.875A3.258,3.258,0,0,0,19.909,5.542Z" transform="translate(0 -1.244)"/>
    <path id="Path_5104" data-name="Path 5104" d="M11.955,9.385,19.61,2.751A4.346,4.346,0,0,0,16.043,1H4.311A4.346,4.346,0,0,0,.744,2.751L8.4,9.385a2.8,2.8,0,0,0,3.557,0Z" transform="translate(-0.204)"/>
  </g>
</svg>
