<svg id="Group_1491" data-name="Group 1491" xmlns="http://www.w3.org/2000/svg" width="7.755" height="15.298" viewBox="0 0 7.755 15.298">
  <path id="Path_450" data-name="Path 450" d="M679.534,424.992l.229-2.349a3.313,3.313,0,0,1,.324.482,6.92,6.92,0,0,1,.963,4.509l.471-1.287c.037.106.074.214.111.325h0a44.208,44.208,0,0,1,1.519,6.148,24.029,24.029,0,0,0-1.113-2.36,41.181,41.181,0,0,0-2.88-4.649c-.689-.966-1.477-1.989-2.372-3.039,0,0,.579-.971-.05-3.449C676.736,419.323,679.341,420.548,679.534,424.992Z" transform="translate(-676.736 -419.323)" fill="#a5a5a5"/>
  <path id="Path_451" data-name="Path 451" d="M734.621,457.992l.789-1.806a2.763,2.763,0,0,1,.133.466,5.78,5.78,0,0,1-.4,3.829l.707-.9c0,.094,0,.189,0,.287h0a36.932,36.932,0,0,1-.385,5.274,20.123,20.123,0,0,0-.273-2.162,34.38,34.38,0,0,0-1.083-4.437c-.3-.946-.658-1.961-1.1-3.027,0,0,.711-.621.853-2.751C733.867,452.767,735.618,454.414,734.621,457.992Z" transform="translate(-728.098 -449.846)" fill="#a5a5a5"/>
</svg>
