<svg xmlns="http://www.w3.org/2000/svg" xmlns:xlink="http://www.w3.org/1999/xlink" width="68" height="68" viewBox="0 0 68 68">
  <defs>
    <filter id="Rectangle_2947" x="0" y="0" width="68" height="68" filterUnits="userSpaceOnUse">
      <feOffset dy="3" input="SourceAlpha"/>
      <feGaussianBlur stdDeviation="3" result="blur"/>
      <feFlood flood-opacity="0.161"/>
      <feComposite operator="in" in2="blur"/>
      <feComposite in="SourceGraphic"/>
    </filter>
  </defs>
  <g id="Group_3564" data-name="Group 3564" transform="translate(4706 11169)">
    <path id="Subtraction_3" data-name="Subtraction 3" d="M32,54H0V0H32V2H2V52H32v2Z" transform="translate(-4699 -11165)" fill="#fff"/>
    <g transform="matrix(1, 0, 0, 1, -4706, -11169)" filter="url(#Rectangle_2947)">
      <rect id="Rectangle_2947-2" data-name="Rectangle 2947" width="50" height="50" transform="translate(9 6)" fill="#ff6a00"/>
    </g>
    <g id="Group_3563" data-name="Group 3563" transform="translate(-2420.988 -9471.363) rotate(90)">
      <g id="Path_5107" data-name="Path 5107" fill="#fff">
        <path d="M -1664.671752929688 2265.43212890625 C -1666.907836914062 2265.43212890625 -1669.143798828125 2265.431640625 -1671.379760742188 2265.4306640625 C -1671.9228515625 2265.430419921875 -1672.224731445312 2265.124267578125 -1672.2294921875 2264.56884765625 C -1672.230346679688 2264.462646484375 -1672.228881835938 2264.35400390625 -1672.227416992188 2264.248779296875 C -1672.224731445312 2264.060791015625 -1672.221923828125 2263.866455078125 -1672.23291015625 2263.674560546875 C -1672.307250976562 2262.362548828125 -1671.969604492188 2261.52197265625 -1671.137939453125 2260.948486328125 L -1671.049560546875 2260.8876953125 L -1671.116577148438 2260.8037109375 C -1671.928955078125 2259.78759765625 -1672.718017578125 2258.80029296875 -1673.507080078125 2257.8125 C -1673.693237304688 2257.57958984375 -1673.884887695312 2257.3447265625 -1674.070068359375 2257.117431640625 C -1674.486694335938 2256.6064453125 -1674.91748046875 2256.078125 -1675.31396484375 2255.539794921875 C -1675.954711914062 2254.669677734375 -1676.252807617188 2253.686279296875 -1676.176025390625 2252.69580078125 C -1676.099487304688 2251.707763671875 -1675.6552734375 2250.7783203125 -1674.891479492188 2250.00830078125 C -1674.55859375 2249.6728515625 -1674.217041015625 2249.334228515625 -1673.886596679688 2249.006591796875 C -1673.420288085938 2248.54443359375 -1672.938232421875 2248.066650390625 -1672.471801757812 2247.58837890625 C -1672.333618164062 2247.447021484375 -1672.236450195312 2247.21337890625 -1672.235473632812 2247.02001953125 C -1672.227294921875 2245.36572265625 -1672.22705078125 2243.68359375 -1672.226684570312 2242.05712890625 C -1672.2265625 2241.121337890625 -1672.226440429688 2240.185546875 -1672.224853515625 2239.249755859375 C -1672.223266601562 2238.355712890625 -1671.940063476562 2237.683837890625 -1671.359130859375 2237.19580078125 C -1670.8818359375 2236.794677734375 -1670.3623046875 2236.591552734375 -1669.815063476562 2236.591552734375 C -1669.497436523438 2236.591552734375 -1669.168334960938 2236.66064453125 -1668.8369140625 2236.797119140625 C -1667.93505859375 2237.168212890625 -1667.413818359375 2237.865966796875 -1667.369262695312 2238.76171875 C -1667.319091796875 2239.76708984375 -1667.31787109375 2240.792724609375 -1667.316650390625 2241.784423828125 C -1667.316040039062 2242.204833984375 -1667.315551757812 2242.639404296875 -1667.311279296875 2243.06689453125 C -1667.310180664062 2243.166748046875 -1667.310546875 2243.2666015625 -1667.310791015625 2243.366943359375 L -1667.31103515625 2243.50732421875 L -1667.31103515625 2243.607421875 L -1667.211059570312 2243.607421875 C -1667.0478515625 2243.607421875 -1666.8857421875 2243.599853515625 -1666.72900390625 2243.5927734375 C -1666.57373046875 2243.585693359375 -1666.427124023438 2243.578857421875 -1666.28076171875 2243.578857421875 C -1666.077392578125 2243.578857421875 -1665.912963867188 2243.59228515625 -1665.763061523438 2243.62109375 C -1665.002075195312 2243.76806640625 -1664.44384765625 2244.253662109375 -1664.103881835938 2245.06494140625 C -1664.0478515625 2245.198974609375 -1663.984375 2245.3505859375 -1663.7783203125 2245.3505859375 C -1663.739990234375 2245.3505859375 -1663.6982421875 2245.34521484375 -1663.650634765625 2245.334228515625 C -1663.395751953125 2245.27490234375 -1663.147338867188 2245.244873046875 -1662.912231445312 2245.244873046875 C -1661.877807617188 2245.244873046875 -1661.072387695312 2245.83447265625 -1660.644165039062 2246.90478515625 C -1660.63232421875 2246.9345703125 -1660.616455078125 2246.959228515625 -1660.599609375 2246.985107421875 C -1660.593017578125 2246.995361328125 -1660.5859375 2247.006591796875 -1660.578369140625 2247.01904296875 L -1660.542358398438 2247.078857421875 L -1660.473754882812 2247.0654296875 C -1660.40673828125 2247.052490234375 -1660.33984375 2247.037841796875 -1660.27294921875 2247.02294921875 C -1660.135131835938 2246.99267578125 -1659.992553710938 2246.96142578125 -1659.853515625 2246.94775390625 C -1659.759155273438 2246.938232421875 -1659.6640625 2246.93359375 -1659.571044921875 2246.93359375 C -1658.172607421875 2246.93359375 -1657.139404296875 2247.979248046875 -1657.114135742188 2249.420166015625 L -1657.111694335938 2249.55859375 C -1657.073486328125 2251.74169921875 -1657.033935546875 2253.9990234375 -1657.373779296875 2256.199462890625 C -1657.594116210938 2257.6279296875 -1657.946899414062 2259.035400390625 -1658.422119140625 2260.3828125 C -1658.442504882812 2260.441162109375 -1658.461303710938 2260.49951171875 -1658.482421875 2260.565185546875 C -1658.492553710938 2260.5966796875 -1658.503295898438 2260.6298828125 -1658.515014648438 2260.665771484375 L -1658.540405273438 2260.743408203125 L -1658.469360351562 2260.78369140625 C -1657.525268554688 2261.31982421875 -1657.07763671875 2262.14404296875 -1657.100830078125 2263.3037109375 C -1657.105102539062 2263.51904296875 -1657.103881835938 2263.7373046875 -1657.1025390625 2263.948486328125 C -1657.101318359375 2264.15234375 -1657.10009765625 2264.36328125 -1657.103881835938 2264.56982421875 C -1657.114013671875 2265.12451171875 -1657.41943359375 2265.430419921875 -1657.9638671875 2265.4306640625 C -1660.199829101562 2265.431640625 -1662.435791015625 2265.43212890625 -1664.671752929688 2265.43212890625 Z M -1669.383544921875 2262.015625 C -1669.518432617188 2262.015625 -1669.629272460938 2262.017578125 -1669.732299804688 2262.021728515625 C -1670.244140625 2262.041259765625 -1670.630859375 2262.349609375 -1670.694458007812 2262.788818359375 C -1670.728759765625 2263.02587890625 -1670.72021484375 2263.267822265625 -1670.712158203125 2263.501953125 C -1670.708618164062 2263.602294921875 -1670.704956054688 2263.7060546875 -1670.704956054688 2263.80615234375 L -1670.704956054688 2263.90625 L -1670.60498046875 2263.90625 L -1658.707397460938 2263.90625 L -1658.607421875 2263.90625 L -1658.607421875 2263.80615234375 L -1658.607421875 2263.32177734375 C -1658.607543945312 2262.347412109375 -1658.936645507812 2262.0185546875 -1659.911865234375 2262.0185546875 L -1668.873413085938 2262.0185546875 C -1668.958129882812 2262.0185546875 -1669.042846679688 2262.017822265625 -1669.127563476562 2262.01708984375 C -1669.212890625 2262.016357421875 -1669.298217773438 2262.015625 -1669.383544921875 2262.015625 Z M -1672.439208984375 2249.65771484375 L -1672.490234375 2249.709716796875 C -1672.638916015625 2249.86181640625 -1672.789184570312 2250.012451171875 -1672.939453125 2250.162841796875 C -1673.267333984375 2250.49169921875 -1673.6064453125 2250.831298828125 -1673.924560546875 2251.181884765625 C -1674.887939453125 2252.241943359375 -1674.941040039062 2253.593505859375 -1674.063110351562 2254.708740234375 C -1672.583862304688 2256.587646484375 -1671.061767578125 2258.47021484375 -1669.589721679688 2260.291015625 C -1669.486083984375 2260.4189453125 -1669.282348632812 2260.515869140625 -1669.115844726562 2260.5166015625 C -1667.39794921875 2260.52294921875 -1665.651489257812 2260.523681640625 -1663.96240234375 2260.524658203125 C -1662.781860351562 2260.525146484375 -1661.601196289062 2260.52587890625 -1660.420654296875 2260.5283203125 C -1660.233276367188 2260.5283203125 -1660.033813476562 2260.48876953125 -1659.954711914062 2260.195556640625 C -1659.845092773438 2259.788330078125 -1659.725219726562 2259.37548828125 -1659.609497070312 2258.976318359375 C -1659.375610351562 2258.17041015625 -1659.1337890625 2257.3369140625 -1658.9609375 2256.501708984375 C -1658.564575195312 2254.586181640625 -1658.584350585938 2252.61572265625 -1658.603515625 2250.710205078125 C -1658.607788085938 2250.286865234375 -1658.612182617188 2249.848876953125 -1658.611938476562 2249.4189453125 C -1658.611694335938 2248.868408203125 -1658.994140625 2248.453857421875 -1659.521484375 2248.433349609375 C -1659.536987304688 2248.4326171875 -1659.552368164062 2248.432373046875 -1659.567626953125 2248.432373046875 C -1660.090698242188 2248.432373046875 -1660.455078125 2248.787109375 -1660.518432617188 2249.358154296875 C -1660.572387695312 2249.84228515625 -1660.8388671875 2250.109130859375 -1661.268798828125 2250.109130859375 C -1661.2802734375 2250.109130859375 -1661.2919921875 2250.10888671875 -1661.3037109375 2250.108642578125 C -1661.728759765625 2250.09423828125 -1662.018310546875 2249.7666015625 -1662.024291992188 2249.293212890625 C -1662.02783203125 2249.009521484375 -1662.027099609375 2248.720703125 -1662.0263671875 2248.44140625 C -1662.025756835938 2248.223388671875 -1662.025268554688 2248.00537109375 -1662.026611328125 2247.787353515625 C -1662.030639648438 2247.1396484375 -1662.38916015625 2246.7353515625 -1662.96240234375 2246.73193359375 L -1662.968139648438 2246.73193359375 C -1663.531860351562 2246.73193359375 -1663.916015625 2247.1494140625 -1663.924072265625 2247.770751953125 C -1663.927490234375 2248.032958984375 -1663.926635742188 2248.29931640625 -1663.925903320312 2248.556884765625 C -1663.925170898438 2248.793212890625 -1663.924560546875 2249.037353515625 -1663.927001953125 2249.27734375 C -1663.9326171875 2249.79833984375 -1664.197021484375 2250.1015625 -1664.652587890625 2250.10888671875 L -1664.669311523438 2250.109130859375 C -1665.129272460938 2250.109130859375 -1665.407836914062 2249.799560546875 -1665.414794921875 2249.281005859375 C -1665.421264648438 2248.794921875 -1665.420166015625 2248.30029296875 -1665.419067382812 2247.822021484375 C -1665.41845703125 2247.543701171875 -1665.417846679688 2247.265625 -1665.418701171875 2246.987548828125 C -1665.4189453125 2246.892822265625 -1665.417846679688 2246.797607421875 -1665.416870117188 2246.70263671875 C -1665.413940429688 2246.43408203125 -1665.410888671875 2246.156494140625 -1665.43701171875 2245.883544921875 C -1665.484375 2245.384765625 -1665.875366210938 2245.022705078125 -1666.36669921875 2245.022705078125 C -1666.56298828125 2245.022705078125 -1666.755493164062 2245.084228515625 -1666.92333984375 2245.201171875 C -1667.273071289062 2245.444580078125 -1667.3125 2245.80810546875 -1667.311645507812 2246.060302734375 C -1667.308349609375 2247.319580078125 -1667.30859375 2248.291015625 -1667.3125 2249.2099609375 C -1667.314697265625 2249.689208984375 -1667.537963867188 2250.0185546875 -1667.909545898438 2250.0908203125 C -1667.968383789062 2250.102294921875 -1668.026611328125 2250.108154296875 -1668.082641601562 2250.108154296875 C -1668.515014648438 2250.108154296875 -1668.805786132812 2249.7666015625 -1668.80615234375 2249.25830078125 C -1668.8076171875 2246.929931640625 -1668.807495117188 2244.6015625 -1668.807373046875 2242.27294921875 L -1668.807373046875 2239.32958984375 C -1668.807373046875 2239.297607421875 -1668.806518554688 2239.265625 -1668.8056640625 2239.233642578125 C -1668.803344726562 2239.14892578125 -1668.801025390625 2239.061279296875 -1668.814331054688 2238.972900390625 C -1668.871459960938 2238.58935546875 -1669.06640625 2238.32470703125 -1669.393676757812 2238.186767578125 C -1669.52734375 2238.1298828125 -1669.661010742188 2238.101318359375 -1669.790771484375 2238.101318359375 C -1669.995483398438 2238.101318359375 -1670.188598632812 2238.17138671875 -1670.36474609375 2238.31005859375 C -1670.685180664062 2238.561767578125 -1670.725952148438 2238.92529296875 -1670.7255859375 2239.2138671875 C -1670.721923828125 2243.4736328125 -1670.72265625 2247.94287109375 -1670.727661132812 2252.498046875 C -1670.727905273438 2252.726318359375 -1670.752563476562 2252.913818359375 -1670.802856445312 2253.071533203125 C -1670.901000976562 2253.37939453125 -1671.158813476562 2253.478515625 -1671.357788085938 2253.507568359375 C -1671.406372070312 2253.514404296875 -1671.454345703125 2253.51806640625 -1671.500366210938 2253.51806640625 C -1671.669189453125 2253.51806640625 -1671.899169921875 2253.4697265625 -1672.036254882812 2253.23974609375 C -1672.14599609375 2253.0556640625 -1672.214233398438 2252.823974609375 -1672.218994140625 2252.620361328125 C -1672.234619140625 2251.939453125 -1672.232177734375 2251.246337890625 -1672.229736328125 2250.575927734375 C -1672.228881835938 2250.325927734375 -1672.22802734375 2250.075927734375 -1672.22802734375 2249.826171875 L -1672.22802734375 2249.76513671875 L -1672.282104492188 2249.7373046875 L -1672.29248046875 2249.73193359375 C -1672.319702148438 2249.718017578125 -1672.346801757812 2249.703857421875 -1672.3740234375 2249.6904296875 L -1672.439208984375 2249.65771484375 Z" stroke="none"/>
        <path d="M -1664.671752929688 2265.332275390625 C -1662.435791015625 2265.332275390625 -1660.199829101562 2265.331787109375 -1657.9638671875 2265.330810546875 C -1657.468872070312 2265.330322265625 -1657.213134765625 2265.07373046875 -1657.203857421875 2264.568115234375 C -1657.200073242188 2264.362548828125 -1657.201293945312 2264.15234375 -1657.202514648438 2263.948974609375 C -1657.203857421875 2263.7373046875 -1657.205078125 2263.518310546875 -1657.200805664062 2263.3017578125 C -1657.178344726562 2262.18212890625 -1657.609497070312 2261.386962890625 -1658.518676757812 2260.87060546875 L -1658.660766601562 2260.7900390625 L -1658.609985351562 2260.634521484375 C -1658.598388671875 2260.59912109375 -1658.587768554688 2260.56591796875 -1658.57763671875 2260.53466796875 C -1658.556274414062 2260.468017578125 -1658.537231445312 2260.40869140625 -1658.516357421875 2260.349609375 C -1658.043212890625 2259.0078125 -1657.692016601562 2257.6064453125 -1657.472534179688 2256.184326171875 C -1657.134155273438 2253.9921875 -1657.173583984375 2251.7392578125 -1657.211669921875 2249.560302734375 L -1657.214111328125 2249.421875 C -1657.238403320312 2248.0380859375 -1658.229614257812 2247.033447265625 -1659.571044921875 2247.033447265625 C -1659.660888671875 2247.033447265625 -1659.752563476562 2247.0380859375 -1659.843627929688 2247.047119140625 C -1659.976806640625 2247.060302734375 -1660.110229492188 2247.089599609375 -1660.25146484375 2247.120849609375 C -1660.319213867188 2247.1357421875 -1660.386962890625 2247.150390625 -1660.454711914062 2247.16357421875 L -1660.591918945312 2247.190185546875 L -1660.6640625 2247.070556640625 C -1660.671020507812 2247.05908203125 -1660.677612304688 2247.048828125 -1660.683715820312 2247.039306640625 C -1660.701538085938 2247.01171875 -1660.7216796875 2246.98046875 -1660.736938476562 2246.94189453125 C -1661.154907226562 2245.897216796875 -1661.907104492188 2245.344970703125 -1662.912231445312 2245.344970703125 C -1663.1396484375 2245.344970703125 -1663.380493164062 2245.3740234375 -1663.628051757812 2245.431640625 C -1663.68310546875 2245.4443359375 -1663.732177734375 2245.45068359375 -1663.7783203125 2245.45068359375 C -1664.050903320312 2245.45068359375 -1664.138305664062 2245.24169921875 -1664.196044921875 2245.103759765625 C -1664.522338867188 2244.3251953125 -1665.055908203125 2243.859375 -1665.781860351562 2243.719482421875 C -1665.925415039062 2243.69189453125 -1666.083862304688 2243.678955078125 -1666.28076171875 2243.678955078125 C -1666.4248046875 2243.678955078125 -1666.570434570312 2243.685546875 -1666.724487304688 2243.692626953125 C -1666.88232421875 2243.699951171875 -1667.045532226562 2243.707275390625 -1667.211059570312 2243.707275390625 L -1667.411010742188 2243.707275390625 L -1667.410766601562 2243.36669921875 C -1667.410522460938 2243.266845703125 -1667.41015625 2243.16748046875 -1667.411254882812 2243.06787109375 C -1667.41552734375 2242.639892578125 -1667.416137695312 2242.205078125 -1667.416625976562 2241.78466796875 C -1667.417846679688 2240.7939453125 -1667.419189453125 2239.769775390625 -1667.469116210938 2238.766845703125 C -1667.51171875 2237.911865234375 -1668.010986328125 2237.2451171875 -1668.875 2236.8896484375 C -1669.194213867188 2236.758056640625 -1669.510498046875 2236.69140625 -1669.815063476562 2236.69140625 C -1670.338134765625 2236.69140625 -1670.836059570312 2236.886962890625 -1671.294799804688 2237.272216796875 C -1671.851806640625 2237.740234375 -1672.123291015625 2238.38720703125 -1672.124877929688 2239.249755859375 C -1672.12646484375 2240.185546875 -1672.126586914062 2241.121337890625 -1672.126708984375 2242.05712890625 C -1672.126953125 2243.683837890625 -1672.127319335938 2245.365966796875 -1672.135498046875 2247.0205078125 C -1672.136596679688 2247.2412109375 -1672.243041992188 2247.49755859375 -1672.400146484375 2247.658203125 C -1672.8671875 2248.136962890625 -1673.349609375 2248.615234375 -1673.816284179688 2249.07763671875 C -1674.146484375 2249.405029296875 -1674.487915039062 2249.743408203125 -1674.820556640625 2250.078857421875 C -1676.351318359375 2251.6220703125 -1676.513427734375 2253.7421875 -1675.233520507812 2255.48046875 C -1674.838500976562 2256.0166015625 -1674.408447265625 2256.544189453125 -1673.992553710938 2257.05419921875 C -1673.807250976562 2257.28173828125 -1673.615478515625 2257.516845703125 -1673.428955078125 2257.750244140625 C -1672.639892578125 2258.738037109375 -1671.850830078125 2259.725341796875 -1671.038452148438 2260.7412109375 L -1670.904418945312 2260.908935546875 L -1671.081176757812 2261.03076171875 C -1671.8916015625 2261.589599609375 -1672.206176757812 2262.378662109375 -1672.133056640625 2263.668701171875 C -1672.121948242188 2263.864501953125 -1672.124755859375 2264.060546875 -1672.12744140625 2264.250244140625 C -1672.12890625 2264.354736328125 -1672.13037109375 2264.462890625 -1672.129516601562 2264.568115234375 C -1672.125122070312 2265.07373046875 -1671.872802734375 2265.330322265625 -1671.379638671875 2265.330810546875 C -1669.143676757812 2265.331787109375 -1666.90771484375 2265.332275390625 -1664.671752929688 2265.332275390625 M -1669.383544921875 2261.915771484375 C -1669.213623046875 2261.915771484375 -1669.043579101562 2261.918701171875 -1668.873413085938 2261.918701171875 L -1659.911865234375 2261.918701171875 C -1658.88818359375 2261.918701171875 -1658.507568359375 2262.298828125 -1658.507446289062 2263.32177734375 L -1658.507446289062 2264.006103515625 L -1670.804931640625 2264.006103515625 L -1670.804931640625 2263.80615234375 C -1670.804931640625 2263.707763671875 -1670.808471679688 2263.609375 -1670.81201171875 2263.50537109375 C -1670.8203125 2263.266845703125 -1670.828979492188 2263.0205078125 -1670.79345703125 2262.774658203125 C -1670.72265625 2262.285888671875 -1670.297729492188 2261.943115234375 -1669.736328125 2261.921630859375 C -1669.6318359375 2261.917724609375 -1669.519775390625 2261.915771484375 -1669.383544921875 2261.915771484375 M -1672.459594726562 2249.53564453125 L -1672.329223632812 2249.600830078125 C -1672.301635742188 2249.61474609375 -1672.274169921875 2249.62890625 -1672.24658203125 2249.64306640625 L -1672.128051757812 2249.704345703125 L -1672.128051757812 2249.826171875 C -1672.128051757812 2250.076171875 -1672.12890625 2250.326171875 -1672.129760742188 2250.576171875 C -1672.132202148438 2251.245849609375 -1672.134643554688 2251.9384765625 -1672.119018554688 2252.617919921875 C -1672.114624023438 2252.80517578125 -1672.051635742188 2253.0185546875 -1671.950439453125 2253.188720703125 C -1671.859619140625 2253.3408203125 -1671.708251953125 2253.41796875 -1671.500366210938 2253.41796875 C -1671.459106445312 2253.41796875 -1671.415893554688 2253.414794921875 -1671.372192382812 2253.408447265625 C -1671.201416015625 2253.383544921875 -1670.980590820312 2253.2998046875 -1670.898193359375 2253.041259765625 C -1670.85107421875 2252.8935546875 -1670.828002929688 2252.715576171875 -1670.82763671875 2252.497802734375 C -1670.822631835938 2247.94287109375 -1670.822021484375 2243.4736328125 -1670.825561523438 2239.214111328125 C -1670.825927734375 2238.90283203125 -1670.780883789062 2238.509765625 -1670.426635742188 2238.2314453125 C -1670.232421875 2238.07861328125 -1670.018432617188 2238.001220703125 -1669.790771484375 2238.001220703125 C -1669.647583007812 2238.001220703125 -1669.500732421875 2238.03271484375 -1669.354736328125 2238.094482421875 C -1668.998291015625 2238.244873046875 -1668.777099609375 2238.543701171875 -1668.715454101562 2238.9580078125 C -1668.700805664062 2239.05517578125 -1668.703247070312 2239.1474609375 -1668.705688476562 2239.236328125 C -1668.70654296875 2239.267333984375 -1668.707397460938 2239.29833984375 -1668.707397460938 2239.32958984375 L -1668.707397460938 2242.27294921875 C -1668.70751953125 2244.6015625 -1668.707641601562 2246.929931640625 -1668.706176757812 2249.258056640625 C -1668.705810546875 2249.7138671875 -1668.461059570312 2250.008056640625 -1668.082641601562 2250.008056640625 C -1668.032958984375 2250.008056640625 -1667.981201171875 2250.0029296875 -1667.9287109375 2249.99267578125 C -1667.607421875 2249.93017578125 -1667.41455078125 2249.637451171875 -1667.412475585938 2249.20947265625 C -1667.408569335938 2248.290771484375 -1667.408325195312 2247.319580078125 -1667.41162109375 2246.060791015625 C -1667.412963867188 2245.6298828125 -1667.27197265625 2245.322021484375 -1666.98046875 2245.119140625 C -1666.795776367188 2244.990478515625 -1666.58349609375 2244.922607421875 -1666.36669921875 2244.922607421875 C -1665.831420898438 2244.922607421875 -1665.388916015625 2245.331787109375 -1665.33740234375 2245.8740234375 C -1665.310913085938 2246.15234375 -1665.313842773438 2246.4326171875 -1665.31689453125 2246.70361328125 C -1665.31787109375 2246.79833984375 -1665.31884765625 2246.892822265625 -1665.318725585938 2246.9873046875 C -1665.31787109375 2247.265380859375 -1665.318481445312 2247.543701171875 -1665.319091796875 2247.822265625 C -1665.320190429688 2248.300048828125 -1665.3212890625 2248.79443359375 -1665.314819335938 2249.279541015625 C -1665.30859375 2249.7431640625 -1665.073364257812 2250.009033203125 -1664.669311523438 2250.009033203125 L -1664.654296875 2250.009033203125 C -1664.115234375 2250.000244140625 -1664.029907226562 2249.546142578125 -1664.026977539062 2249.276123046875 C -1664.024536132812 2249.037109375 -1664.025268554688 2248.79296875 -1664.02587890625 2248.55712890625 C -1664.026733398438 2248.299072265625 -1664.027465820312 2248.032470703125 -1664.024047851562 2247.769287109375 C -1664.015258789062 2247.089111328125 -1663.590942382812 2246.632080078125 -1662.968139648438 2246.632080078125 L -1662.9619140625 2246.632080078125 C -1662.337280273438 2246.635498046875 -1661.930908203125 2247.0888671875 -1661.926635742188 2247.786865234375 C -1661.925170898438 2248.005126953125 -1661.92578125 2248.223388671875 -1661.926391601562 2248.441650390625 C -1661.927124023438 2248.720703125 -1661.927856445312 2249.009033203125 -1661.92431640625 2249.2919921875 C -1661.9189453125 2249.71484375 -1661.674072265625 2249.99609375 -1661.30029296875 2250.008544921875 C -1661.289672851562 2250.009033203125 -1661.279174804688 2250.009033203125 -1661.268798828125 2250.009033203125 C -1660.791748046875 2250.009033203125 -1660.651489257812 2249.649169921875 -1660.617797851562 2249.34716796875 C -1660.549438476562 2248.730712890625 -1660.13720703125 2248.332275390625 -1659.567626953125 2248.332275390625 C -1659.551147460938 2248.332275390625 -1659.534423828125 2248.332763671875 -1659.517578125 2248.333251953125 C -1658.9345703125 2248.356201171875 -1658.511596679688 2248.812744140625 -1658.511962890625 2249.4189453125 C -1658.51220703125 2249.848388671875 -1658.5078125 2250.2861328125 -1658.503540039062 2250.709228515625 C -1658.484375 2252.6201171875 -1658.464477539062 2254.595947265625 -1658.863037109375 2256.52197265625 C -1659.03662109375 2257.361083984375 -1659.279052734375 2258.196533203125 -1659.513427734375 2259.004150390625 C -1659.629150390625 2259.40283203125 -1659.748779296875 2259.815185546875 -1659.858154296875 2260.221435546875 C -1659.95654296875 2260.586181640625 -1660.224731445312 2260.628173828125 -1660.420776367188 2260.628173828125 C -1661.601440429688 2260.625732421875 -1662.781982421875 2260.625244140625 -1663.962524414062 2260.62451171875 C -1665.651611328125 2260.623779296875 -1667.398193359375 2260.622802734375 -1669.1162109375 2260.616455078125 C -1669.312866210938 2260.61572265625 -1669.544677734375 2260.50537109375 -1669.66748046875 2260.353759765625 C -1671.139770507812 2258.532958984375 -1672.662109375 2256.64990234375 -1674.1416015625 2254.770751953125 C -1675.051879882812 2253.6142578125 -1674.996948242188 2252.21337890625 -1673.99853515625 2251.114501953125 C -1673.678955078125 2250.762451171875 -1673.338989257812 2250.421875 -1673.01025390625 2250.09228515625 C -1672.860229492188 2249.94189453125 -1672.710205078125 2249.791748046875 -1672.561645507812 2249.639892578125 L -1672.459594726562 2249.53564453125 M -1664.671752929688 2265.5322265625 C -1666.907836914062 2265.5322265625 -1669.143798828125 2265.53173828125 -1671.379760742188 2265.53076171875 C -1671.983154296875 2265.5302734375 -1672.32421875 2265.1796875 -1672.329467773438 2264.56982421875 C -1672.33203125 2264.27294921875 -1672.31591796875 2263.9755859375 -1672.332763671875 2263.68017578125 C -1672.395751953125 2262.56884765625 -1672.202514648438 2261.56103515625 -1671.194702148438 2260.8662109375 C -1672.007080078125 2259.85009765625 -1672.796142578125 2258.86279296875 -1673.585205078125 2257.875 C -1674.190185546875 2257.1181640625 -1674.820068359375 2256.37890625 -1675.39453125 2255.59912109375 C -1676.731689453125 2253.783203125 -1676.55126953125 2251.53955078125 -1674.962524414062 2249.93798828125 C -1674.159545898438 2249.12841796875 -1673.339599609375 2248.3349609375 -1672.543334960938 2247.5185546875 C -1672.424926757812 2247.3974609375 -1672.336303710938 2247.1884765625 -1672.33544921875 2247.01953125 C -1672.322631835938 2244.4296875 -1672.329223632812 2241.83984375 -1672.324829101562 2239.24951171875 C -1672.323364257812 2238.41650390625 -1672.083129882812 2237.67333984375 -1671.423461914062 2237.119140625 C -1670.634887695312 2236.456787109375 -1669.736083984375 2236.31884765625 -1668.798828125 2236.70458984375 C -1667.900756835938 2237.07421875 -1667.318237304688 2237.77587890625 -1667.269409179688 2238.7568359375 C -1667.197875976562 2240.19091796875 -1667.2255859375 2241.62939453125 -1667.211303710938 2243.06591796875 C -1667.209716796875 2243.21240234375 -1667.211059570312 2243.35888671875 -1667.211059570312 2243.50732421875 C -1666.700561523438 2243.507080078125 -1666.206787109375 2243.434326171875 -1665.744140625 2243.52294921875 C -1664.903930664062 2243.68505859375 -1664.340698242188 2244.2412109375 -1664.011596679688 2245.0263671875 C -1663.943359375 2245.189453125 -1663.896362304688 2245.287841796875 -1663.673217773438 2245.23681640625 C -1662.226196289062 2244.900634765625 -1661.099609375 2245.4970703125 -1660.55126953125 2246.86767578125 C -1660.5390625 2246.8984375 -1660.517822265625 2246.92578125 -1660.492797851562 2246.96728515625 C -1660.283569335938 2246.9267578125 -1660.075317382812 2246.869140625 -1659.863403320312 2246.84814453125 C -1658.300415039062 2246.694580078125 -1657.042724609375 2247.785400390625 -1657.01416015625 2249.41845703125 C -1656.974609375 2251.6865234375 -1656.9267578125 2253.9599609375 -1657.27490234375 2256.21484375 C -1657.495971679688 2257.6474609375 -1657.845581054688 2259.048828125 -1658.327758789062 2260.416015625 C -1658.357788085938 2260.50146484375 -1658.384155273438 2260.58740234375 -1658.419921875 2260.69677734375 C -1657.386352539062 2261.28369140625 -1656.978271484375 2262.17822265625 -1657.000854492188 2263.3056640625 C -1657.00927734375 2263.7275390625 -1656.99609375 2264.14990234375 -1657.00390625 2264.57177734375 C -1657.01513671875 2265.18359375 -1657.360961914062 2265.5302734375 -1657.963745117188 2265.53076171875 C -1660.199829101562 2265.53173828125 -1662.435791015625 2265.5322265625 -1664.671752929688 2265.5322265625 Z M -1669.383544921875 2262.11572265625 C -1669.49853515625 2262.11572265625 -1669.613525390625 2262.116943359375 -1669.728393554688 2262.12158203125 C -1670.177001953125 2262.138671875 -1670.536376953125 2262.39501953125 -1670.595458984375 2262.80322265625 C -1670.64306640625 2263.13232421875 -1670.60498046875 2263.47412109375 -1670.60498046875 2263.80615234375 L -1658.707397460938 2263.80615234375 C -1658.707397460938 2263.6171875 -1658.707397460938 2263.46923828125 -1658.707397460938 2263.32177734375 C -1658.70751953125 2262.408203125 -1658.996948242188 2262.11865234375 -1659.911865234375 2262.11865234375 C -1662.899047851562 2262.11865234375 -1665.88623046875 2262.11865234375 -1668.873413085938 2262.11865234375 C -1669.04345703125 2262.11865234375 -1669.213500976562 2262.11572265625 -1669.383544921875 2262.11572265625 Z M -1672.418701171875 2249.77978515625 C -1672.897094726562 2250.2685546875 -1673.390869140625 2250.74267578125 -1673.850463867188 2251.2490234375 C -1674.774291992188 2252.265625 -1674.836547851562 2253.564453125 -1673.984497070312 2254.64697265625 C -1672.509887695312 2256.52001953125 -1671.010986328125 2258.3740234375 -1669.511962890625 2260.22802734375 C -1669.427734375 2260.33203125 -1669.25 2260.416015625 -1669.115478515625 2260.41650390625 C -1666.217163085938 2260.42724609375 -1663.31884765625 2260.42236328125 -1660.42041015625 2260.42822265625 C -1660.419555664062 2260.42822265625 -1660.418701171875 2260.42822265625 -1660.417846679688 2260.42822265625 C -1660.216918945312 2260.42822265625 -1660.105712890625 2260.37109375 -1660.05126953125 2260.16943359375 C -1659.720092773438 2258.93994140625 -1659.31640625 2257.72607421875 -1659.058837890625 2256.4814453125 C -1658.576782226562 2254.1513671875 -1658.71337890625 2251.77880859375 -1658.7119140625 2249.4189453125 C -1658.711669921875 2248.90869140625 -1659.063598632812 2248.55126953125 -1659.525390625 2248.533203125 C -1660.019165039062 2248.5146484375 -1660.359741210938 2248.833984375 -1660.419067382812 2249.369140625 C -1660.478515625 2249.90283203125 -1660.789306640625 2250.209228515625 -1661.268798828125 2250.209228515625 C -1661.281372070312 2250.209228515625 -1661.294067382812 2250.208984375 -1661.307006835938 2250.20849609375 C -1661.786376953125 2250.1923828125 -1662.117553710938 2249.82763671875 -1662.124267578125 2249.29443359375 C -1662.130615234375 2248.79248046875 -1662.123413085938 2248.2900390625 -1662.126586914062 2247.7880859375 C -1662.130249023438 2247.19677734375 -1662.449340820312 2246.8349609375 -1662.963012695312 2246.83203125 C -1662.964721679688 2246.83203125 -1662.966430664062 2246.83203125 -1662.968139648438 2246.83203125 C -1663.477905273438 2246.83203125 -1663.816650390625 2247.1982421875 -1663.824096679688 2247.77197265625 C -1663.83056640625 2248.27392578125 -1663.82177734375 2248.7763671875 -1663.827026367188 2249.2783203125 C -1663.833129882812 2249.8525390625 -1664.145385742188 2250.20068359375 -1664.651000976562 2250.208984375 C -1665.17236328125 2250.215087890625 -1665.506958007812 2249.87109375 -1665.514770507812 2249.2822265625 C -1665.525024414062 2248.517578125 -1665.516479492188 2247.75244140625 -1665.518676757812 2246.98779296875 C -1665.51953125 2246.623046875 -1665.501953125 2246.25537109375 -1665.536499023438 2245.89306640625 C -1665.599731445312 2245.22900390625 -1666.323120117188 2244.9052734375 -1666.8662109375 2245.283203125 C -1667.136962890625 2245.4716796875 -1667.212646484375 2245.74658203125 -1667.211669921875 2246.06005859375 C -1667.208862304688 2247.1103515625 -1667.2080078125 2248.16064453125 -1667.212524414062 2249.21044921875 C -1667.214965820312 2249.74072265625 -1667.47607421875 2250.1083984375 -1667.890502929688 2250.18896484375 C -1668.469604492188 2250.3017578125 -1668.905517578125 2249.906005859375 -1668.906127929688 2249.25830078125 C -1668.908203125 2245.94873046875 -1668.907104492188 2242.63916015625 -1668.907348632812 2239.32958984375 C -1668.907470703125 2239.21533203125 -1668.896362304688 2239.099609375 -1668.913208007812 2238.98779296875 C -1668.961547851562 2238.6630859375 -1669.119873046875 2238.41064453125 -1669.432495117188 2238.27880859375 C -1669.742553710938 2238.147705078125 -1670.04052734375 2238.18212890625 -1670.302978515625 2238.388671875 C -1670.567138671875 2238.59619140625 -1670.6259765625 2238.888671875 -1670.625610351562 2239.2138671875 C -1670.621826171875 2243.6416015625 -1670.622802734375 2248.06982421875 -1670.627685546875 2252.498046875 C -1670.6279296875 2252.69970703125 -1670.646728515625 2252.9111328125 -1670.707641601562 2253.10205078125 C -1670.802124023438 2253.3984375 -1671.041625976562 2253.5625 -1671.343383789062 2253.6064453125 C -1671.656616210938 2253.65087890625 -1671.957153320312 2253.56787109375 -1672.122192382812 2253.291015625 C -1672.238159179688 2253.09619140625 -1672.313720703125 2252.8486328125 -1672.318969726562 2252.62255859375 C -1672.34033203125 2251.69091796875 -1672.328002929688 2250.75830078125 -1672.328002929688 2249.826171875 C -1672.358276367188 2249.810546875 -1672.388427734375 2249.794921875 -1672.418701171875 2249.77978515625 Z" stroke="none" fill="#ff6a00"/>
      </g>
    </g>
  </g>
</svg>
