<svg xmlns="http://www.w3.org/2000/svg" width="14.44" height="14.438" viewBox="0 0 14.44 14.438">
  <g id="Group_1440" data-name="Group 1440" transform="translate(-3345.778 1051.734)">
    <path id="Subtraction_1" data-name="Subtraction 1" d="M6.723,13.438H6.714A6.719,6.719,0,0,1,1.973,1.963,6.666,6.666,0,0,1,6.714,0h.022a6.735,6.735,0,0,1,3.326.889l-.737.8a5.6,5.6,0,0,0-2.6-.634H6.713a5.668,5.668,0,0,0,0,11.336h.009A5.67,5.67,0,0,0,12.182,5.2l.915-.61a6.722,6.722,0,0,1-6.374,8.847Z" transform="translate(3346.278 -1051.234)" fill="#fff" stroke="rgba(0,0,0,0)" stroke-miterlimit="10" stroke-width="1"/>
    <path id="Path_2156" data-name="Path 2156" d="M3434.2-942.12c1.037-1.039,2.051-2.061,3.076-3.071a.912.912,0,0,1,.448-.222.429.429,0,0,1,.467.283.5.5,0,0,1-.048.534,1.416,1.416,0,0,1-.156.169l-3.306,3.306c-.36.36-.6.359-.961,0q-.749-.748-1.5-1.5a.544.544,0,0,1-.065-.812.542.542,0,0,1,.813.075l.163.163Z" transform="translate(-82.125 -101.37)" fill="#fff"/>
  </g>
</svg>
