<svg xmlns="http://www.w3.org/2000/svg" width="15.153" height="15.1" viewBox="0 0 15.153 15.1">
  <g id="Group_1455" data-name="Group 1455" transform="translate(1.862 -0.016) rotate(8)">
    <path id="Path_2168" data-name="Path 2168" d="M4.459,5.183A17.833,17.833,0,0,0,8.224,8.936c.042-.037.09-.074.132-.117.306-.307.612-.613.915-.923a.433.433,0,0,1,.53-.119q1.672.744,3.343,1.49a.391.391,0,0,1,.25.525q-.35,1.334-.713,2.665a1.346,1.346,0,0,1-1.226.905,5.1,5.1,0,0,1-1.889-.488A15.784,15.784,0,0,1,1.407,5.748,15.611,15.611,0,0,1,.065,2.486,1.42,1.42,0,0,1,1.218.638C2,.461,2.77.239,3.545.034a.439.439,0,0,1,.618.289q.72,1.614,1.436,3.23a.44.44,0,0,1-.116.6C5.145,4.5,4.8,4.836,4.459,5.183ZM3.535.852l-1.106.289c-.364.1-.723.21-1.091.284a.648.648,0,0,0-.5.907A14.829,14.829,0,0,0,4.916,9a14.351,14.351,0,0,0,6.173,3.552.64.64,0,0,0,.9-.531c.172-.661.345-1.321.528-1.978.037-.134.021-.2-.112-.254q-1.283-.561-2.56-1.139a.2.2,0,0,0-.272.051c-.311.321-.63.634-.948.948a.43.43,0,0,1-.664.062A17.674,17.674,0,0,1,3.685,5.446a.429.429,0,0,1,.056-.665c.29-.293.571-.6.878-.87A.331.331,0,0,0,4.7,3.447c-.24-.5-.457-1.017-.685-1.526C3.856,1.566,3.7,1.212,3.535.852Z" transform="translate(0 0.016)" fill="#fff"/>
    <path id="Path_2169" data-name="Path 2169" d="M.745,0A6.7,6.7,0,0,1,6.87,4.973a10.791,10.791,0,0,1,.224,1.611.393.393,0,0,1-.371.483c-.243.011-.408-.177-.419-.471A5.779,5.779,0,0,0,3,1.4,5.538,5.538,0,0,0,.463.787.416.416,0,0,1,.012.493.386.386,0,0,1,.368.006C.493-.006.619,0,.745,0Z" transform="translate(6.324)" fill="#fff"/>
    <path id="Path_2170" data-name="Path 2170" d="M.588,0A5.119,5.119,0,0,1,5.32,3.808a8.712,8.712,0,0,1,.176,1.2.4.4,0,0,1-.39.49c-.237,0-.391-.176-.4-.465A4.242,4.242,0,0,0,2.518,1.355,3.866,3.866,0,0,0,.653.8,2.188,2.188,0,0,1,.32.768.362.362,0,0,1,0,.351.379.379,0,0,1,.378,0C.448,0,.518,0,.588,0Z" transform="translate(6.329 1.573)" fill="#fff"/>
    <path id="Path_2171" data-name="Path 2171" d="M3.929,3.337a1.831,1.831,0,0,1-.04.346.374.374,0,0,1-.423.233.366.366,0,0,1-.32-.361A2.837,2.837,0,0,0,2.6,1.914,2.719,2.719,0,0,0,.459.786C.154.772-.012.625,0,.365.012.126.2-.013.488,0A3.527,3.527,0,0,1,3.82,2.692C3.878,2.913,3.9,3.144,3.929,3.337Z" transform="translate(6.329 3.145)" fill="#fff"/>
  </g>
</svg>
