<svg id="Group_1467" data-name="Group 1467" xmlns="http://www.w3.org/2000/svg" width="12.782" height="12.829" viewBox="0 0 12.782 12.829">
  <path id="Path_2176" data-name="Path 2176" d="M2139.545-439.978h-5.924c-.328,0-.465-.135-.465-.461q0-3.426,0-6.851a.5.5,0,0,1,.2-.421c.577-.474,1.148-.956,1.725-1.432a.219.219,0,0,0,.085-.191c0-.58,0-1.161,0-1.741a.384.384,0,0,1,.434-.429c.73,0,1.461,0,2.192,0a.331.331,0,0,0,.2-.073c.421-.356.835-.719,1.251-1.08a.4.4,0,0,1,.617,0c.416.361.831.724,1.251,1.08a.334.334,0,0,0,.2.075c.731.005,1.461,0,2.192,0a.386.386,0,0,1,.436.44c0,.572,0,1.144,0,1.716a.24.24,0,0,0,.095.212c.577.475,1.147.957,1.724,1.432a.479.479,0,0,1,.189.4q0,3.444,0,6.888a.387.387,0,0,1-.439.437Zm-3.628-10.767c0,.03,0,.05,0,.07q0,2.3,0,4.6a.225.225,0,0,0,.085.148q1.044.82,2.1,1.63a.317.317,0,0,0,.18.059q1.271.006,2.542,0a.316.316,0,0,0,.18-.062c.694-.535,1.385-1.075,2.078-1.611a.23.23,0,0,0,.1-.207q0-2.242,0-4.484v-.14Zm8.531,10.011c-.035-.031-.05-.046-.066-.059q-1.7-1.322-3.4-2.642a.278.278,0,0,0-.159-.048q-1.278,0-2.555,0a.3.3,0,0,0-.169.058q-1.684,1.3-3.361,2.612c-.027.021-.05.046-.085.079Zm-10.534-.393,3.516-2.734-3.516-2.734Zm11.261,0v-5.465l-3.513,2.733Zm-1.235-7.1v1.641l1.018-.792Zm-8.785,0-1.022.851,1.022.793Zm3.909-3.284h.965l-.483-.417Z" transform="translate(-2133.154 452.807)" fill="#fff"/>
  <path id="Path_2177" data-name="Path 2177" d="M2282.259-346.741a1.141,1.141,0,0,1-1.158.182,1.419,1.419,0,0,1-.873-1.071,1.634,1.634,0,0,1,.38-1.573,1.25,1.25,0,0,1,1.433-.306c.015.006.031.009.052.015l.039-.077a.374.374,0,0,1,.429-.2.371.371,0,0,1,.281.368c0,.66,0,1.319-.005,1.979,0,.112-.021.246.1.3a.337.337,0,0,0,.354-.1,1.093,1.093,0,0,0,.271-.567,1.807,1.807,0,0,0-1.061-2.059,1.918,1.918,0,0,0-2.143.287,1.877,1.877,0,0,0-.64,2.031,1.949,1.949,0,0,0,1.58,1.466,1.711,1.711,0,0,0,.26.03.384.384,0,0,1,.4.39.383.383,0,0,1-.437.363,2.765,2.765,0,0,1-2.518-1.979,2.764,2.764,0,0,1,2.813-3.528,2.744,2.744,0,0,1,2.505,2.116,2.4,2.4,0,0,1-.262,1.671,1.177,1.177,0,0,1-1.029.652.848.848,0,0,1-.693-.286Zm-1.334-1.271a.955.955,0,0,0,.2.567.453.453,0,0,0,.795-.044,1.086,1.086,0,0,0,.063-1.064.489.489,0,0,0-.841-.129A.915.915,0,0,0,2280.925-348.011Z" transform="translate(-2275.248 353.359)" fill="#fff"/>
</svg>
