<svg id="Group_1466" data-name="Group 1466" xmlns="http://www.w3.org/2000/svg" width="16.2" height="14.672" viewBox="0 0 16.2 14.672">
  <path id="Path_2172" data-name="Path 2172" d="M1566.139-196.521c.866,0,1.664,0,2.462,0a1.418,1.418,0,0,1,.3.024c.186.041.318.179.262.353-.041.128-.2.224-.319.316-.041.031-.125.007-.189.007h-15.288c-.225,0-.379-.107-.39-.336s.153-.346.369-.358c.265-.015.532-.005.8-.006h.323v-.355q0-3.36,0-6.72c0-.5.078-.576.572-.578h.416c0-.432,0-.843,0-1.253,0-.378.111-.485.494-.485h1.491v-.62c0-.624,0-1.249,0-1.873,0-.293.126-.419.417-.423.383-.005.767,0,1.182,0,0-.4,0-.773,0-1.146,0-.39.119-.506.509-.507h4.242c.392,0,.49.1.493.484s0,.75,0,1.168c.383,0,.746,0,1.109,0,.4,0,.5.1.505.5,0,.946.007,1.891,0,2.837,0,.22.046.314.282.362a3.289,3.289,0,0,1,2.688,3.21,2.514,2.514,0,0,1-.28,1.161c-.6,1.14-1.263,2.251-1.906,3.371C1566.521-197.11,1566.343-196.845,1566.139-196.521Zm-5.639-.026v-.311c0-.652,0-1.3,0-1.956,0-.325.109-.426.435-.428q.73-.005,1.46,0c.333,0,.443.113.444.448,0,.652,0,1.3,0,1.956v.28h2.05l-.157-.264c-.64-1.069-1.3-2.127-1.912-3.213a4.777,4.777,0,0,1-.579-1.445,3.05,3.05,0,0,1,1.179-2.968,3.382,3.382,0,0,1,1.766-.746v-2.92h-7.027v11.566Zm5.026-.307c.152-.241.288-.444.412-.655.646-1.1,1.3-2.186,1.922-3.3a2.384,2.384,0,0,0,.312-1.038,2.65,2.65,0,0,0-3.683-2.456,2.5,2.5,0,0,0-1.338,3.387c.411.756.823,1.512,1.255,2.255C1564.756-198.059,1565.137-197.479,1565.527-196.854Zm-10.345-6.617v6.92h2.236v-6.92Zm8.4-6.294h-3.821v.906h3.821Zm-1.465,13.219v-2h-.912v2Zm-5.946-8.674v1.025h1.24v-1.025Z" transform="translate(-1552.976 210.483)" fill="#fff"/>
  <path id="Path_2173" data-name="Path 2173" d="M1667.611-136.881h-1.025c0,.269,0,.53,0,.791a2.13,2.13,0,0,1-.018.356.312.312,0,0,1-.372.282.312.312,0,0,1-.305-.328c-.01-.486-.012-.972,0-1.458a.312.312,0,0,1,.337-.325q.867-.005,1.734,0a.32.32,0,0,1,.339.354q.014.7,0,1.4a.318.318,0,0,1-.334.356c-.242,0-.349-.143-.354-.365C1667.605-136.162,1667.611-136.509,1667.611-136.881Z" transform="translate(-1659.663 141.583)" fill="#fff"/>
  <path id="Path_2174" data-name="Path 2174" d="M1667.591-84.839h-1.025c0,.338,0,.665,0,.992,0,.182-.038.351-.247.413a.332.332,0,0,1-.446-.31q-.02-.729,0-1.459a.326.326,0,0,1,.359-.336q.84-.006,1.68,0a.336.336,0,0,1,.37.357c.011.468.008.936,0,1.4a.324.324,0,0,1-.334.36.327.327,0,0,1-.356-.365C1667.587-84.131,1667.591-84.477,1667.591-84.839Z" transform="translate(-1659.643 92.426)" fill="#fff"/>
  <path id="Path_2175" data-name="Path 2175" d="M1753.537-84.655a1.657,1.657,0,0,1-1.657,1.692,1.684,1.684,0,0,1-1.709-1.679,1.69,1.69,0,0,1,1.682-1.682A1.663,1.663,0,0,1,1753.537-84.655Zm-2.67-.005a1,1,0,0,0,.974,1.022,1.023,1.023,0,0,0,1.02-.983,1.016,1.016,0,0,0-.981-1.02A1,1,0,0,0,1750.867-84.661Z" transform="translate(-1739.308 93.164)" fill="#fff"/>
</svg>
