<svg xmlns="http://www.w3.org/2000/svg" width="15.521" height="15.521" viewBox="0 0 15.521 15.521">
  <path id="Icon_simple-instagram" data-name="Icon simple-instagram" d="M7.76,0c-2.108,0-2.371.01-3.2.047A5.722,5.722,0,0,0,2.677.407,3.8,3.8,0,0,0,1.3,1.3a3.787,3.787,0,0,0-.9,1.375A5.706,5.706,0,0,0,.047,4.561C.008,5.389,0,5.652,0,7.761s.01,2.372.047,3.2a5.726,5.726,0,0,0,.361,1.884,3.806,3.806,0,0,0,.9,1.375,3.8,3.8,0,0,0,1.375.9,5.729,5.729,0,0,0,1.884.361c.828.039,1.091.047,3.2.047s2.371-.01,3.2-.047a5.743,5.743,0,0,0,1.884-.361,3.966,3.966,0,0,0,2.27-2.27,5.726,5.726,0,0,0,.361-1.884c.039-.828.047-1.091.047-3.2s-.01-2.372-.047-3.2a5.739,5.739,0,0,0-.361-1.884,3.809,3.809,0,0,0-.9-1.375,3.781,3.781,0,0,0-1.375-.9A5.709,5.709,0,0,0,10.96.047C10.132.008,9.869,0,7.76,0Zm0,1.4c2.071,0,2.318.01,3.136.046a4.276,4.276,0,0,1,1.44.268A2.554,2.554,0,0,1,13.81,3.184a4.285,4.285,0,0,1,.267,1.44c.037.819.045,1.064.045,3.137s-.01,2.318-.048,3.137a4.367,4.367,0,0,1-.272,1.44,2.464,2.464,0,0,1-.581.894,2.421,2.421,0,0,1-.892.579,4.316,4.316,0,0,1-1.445.267c-.824.037-1.066.045-3.142.045s-2.319-.01-3.142-.048A4.4,4.4,0,0,1,3.153,13.8a2.4,2.4,0,0,1-.892-.581,2.356,2.356,0,0,1-.582-.892,4.4,4.4,0,0,1-.272-1.445c-.029-.815-.039-1.066-.039-3.133s.01-2.319.039-3.144a4.4,4.4,0,0,1,.272-1.445,2.3,2.3,0,0,1,.582-.893,2.3,2.3,0,0,1,.892-.581,4.3,4.3,0,0,1,1.436-.272c.825-.029,1.067-.039,3.142-.039L7.76,1.4Zm0,2.379a3.985,3.985,0,1,0,3.985,3.985A3.985,3.985,0,0,0,7.76,3.776Zm0,6.572a2.587,2.587,0,1,1,2.587-2.587A2.586,2.586,0,0,1,7.76,10.347Zm5.074-6.729a.931.931,0,1,1-.931-.931A.932.932,0,0,1,12.834,3.618Z" fill="#ff6a00"/>
</svg>
