<svg xmlns="http://www.w3.org/2000/svg" width="16.482" height="13.387" viewBox="0 0 16.482 13.387">
  <path id="Icon_awesome-twitter" data-name="Icon awesome-twitter" d="M14.788,6.717c.01.146.01.293.01.439a9.545,9.545,0,0,1-9.611,9.611A9.546,9.546,0,0,1,0,15.251a6.987,6.987,0,0,0,.816.042A6.765,6.765,0,0,0,5.009,13.85a3.384,3.384,0,0,1-3.158-2.343,4.26,4.26,0,0,0,.638.052,3.573,3.573,0,0,0,.889-.115A3.378,3.378,0,0,1,.669,8.129V8.087A3.4,3.4,0,0,0,2.2,8.516,3.383,3.383,0,0,1,1.15,4,9.6,9.6,0,0,0,8.115,7.533a3.814,3.814,0,0,1-.084-.774,3.381,3.381,0,0,1,5.846-2.311,6.65,6.65,0,0,0,2.144-.816,3.369,3.369,0,0,1-1.485,1.862,6.772,6.772,0,0,0,1.945-.523,7.261,7.261,0,0,1-1.694,1.747Z" transform="translate(0 -3.381)" fill="#ff6a00"/>
</svg>
