<svg xmlns="http://www.w3.org/2000/svg" width="43.833" height="38.576" viewBox="0 0 43.833 38.576">
  <g id="Group_2729" data-name="Group 2729" transform="translate(-562.305 -419.323)">
    <path id="Union_5" data-name="Union 5" d="M-4657.011-3524.75a10,10,0,0,1-7.906,3.593,10.1,10.1,0,0,1-7.6-3.17,10.833,10.833,0,0,1-3.012-7.725v-17.465a2.877,2.877,0,0,1,2.873-2.873,2.875,2.875,0,0,1,2.87,2.873v14.446a19.5,19.5,0,0,0,.593,5.865c.691,1.842,2.1,2.738,4.321,2.738a4.631,4.631,0,0,0,3.611-1.511,5.362,5.362,0,0,0,1.4-3.784v-17.752a2.876,2.876,0,0,1,2.873-2.873h.044a2.876,2.876,0,0,1,2.873,2.873v17.752a5.438,5.438,0,0,0,1.383,3.764,4.461,4.461,0,0,0,3.531,1.531,4.5,4.5,0,0,0,3.579-1.483,5.5,5.5,0,0,0,1.335-3.812v-5.607l.914,1.344c1.57,2.309,3.053,4.683,4.406,7.053l.109.19-.066.208a10.673,10.673,0,0,1-2.538,4.224,10.148,10.148,0,0,1-7.594,3.2A10.183,10.183,0,0,1-4657.011-3524.75Z" transform="translate(5237.834 3978.973)" fill="#ff6a00"/>
    <g id="Group_1489" data-name="Group 1489" transform="translate(586.583 419.323)">
      <path id="Path_450" data-name="Path 450" d="M683.791,433.618l.576-5.922a8.364,8.364,0,0,1,.818,1.214,17.452,17.452,0,0,1,2.429,11.369l1.187-3.246c.094.266.186.54.28.82v0a111.458,111.458,0,0,1,3.829,15.5,60.575,60.575,0,0,0-2.806-5.951,103.822,103.822,0,0,0-7.262-11.724c-1.737-2.437-3.725-5.015-5.981-7.662,0,0,1.461-2.449-.126-8.7C676.736,419.323,683.3,422.412,683.791,433.618Z" transform="translate(-676.736 -419.323)" fill="#fff"/>
      <path id="Path_451" data-name="Path 451" d="M737.067,465.943l1.99-4.553a6.963,6.963,0,0,1,.335,1.176,14.575,14.575,0,0,1-1.015,9.655l1.782-2.27c.006.236.008.477.01.724v0a93.1,93.1,0,0,1-.972,13.3,50.649,50.649,0,0,0-.687-5.451,86.687,86.687,0,0,0-2.732-11.188c-.749-2.384-1.659-4.946-2.766-7.632,0,0,1.794-1.567,2.151-6.938C735.165,452.767,739.58,456.92,737.067,465.943Z" transform="translate(-720.617 -445.4)" fill="#fff"/>
    </g>
  </g>
</svg>
