<svg id="Layer_1" data-name="Layer 1" xmlns="http://www.w3.org/2000/svg" viewBox="0 0 132.54 43.44"><defs><style>.cls-1{fill:#ff6a00;}.cls-2{isolation:isolate;}.cls-3{fill:#fff;}.cls-4{fill:#222;}</style></defs><g id="Group_3271" data-name="Group 3271"><path id="Path_445" data-name="Path 445" class="cls-1" d="M29.19,21.23v3.53a5.38,5.38,0,0,1-1.3,3.68,4.82,4.82,0,0,1-6.83.1l-.15-.14a5.3,5.3,0,0,1-1.34-3.64V9a2.1,2.1,0,0,0-2.11-2.11h0A2.1,2.1,0,0,0,15.32,9h0V24.76A5.25,5.25,0,0,1,14,28.42a4.58,4.58,0,0,1-3.54,1.49,4.09,4.09,0,0,1-4.25-2.72,17.32,17.32,0,0,1-.55-5.36V9A2.11,2.11,0,0,0,1.4,9V24.51A9.19,9.19,0,0,0,4,31.06a8.94,8.94,0,0,0,12.66.11,9.26,9.26,0,0,0,.78-.88,8.67,8.67,0,0,0,7.11,3.45A8.57,8.57,0,0,0,30.94,31a9.18,9.18,0,0,0,2.15-3.58C32,25.61,30.74,23.5,29.19,21.23Z" transform="translate(-0.77 -0.01)"/><path id="Path_446" data-name="Path 446" class="cls-1" d="M133.31,43.45h-9.75V17.84l9.75,5.28Z" transform="translate(-0.77 -0.01)"/><path id="Path_447" data-name="Path 447" class="cls-1" d="M133.31,19.29v2.38l-9.75-5.29V14Z" transform="translate(-0.77 -0.01)"/><path id="Path_448" data-name="Path 448" class="cls-1" d="M133.31,15.46v2.38l-9.75-5.29V10.17Z" transform="translate(-0.77 -0.01)"/><path id="Path_449" data-name="Path 449" class="cls-1" d="M133.31,11.63V14l-9.75-5.29V6.34Z" transform="translate(-0.77 -0.01)"/><g id="BADMINTION" class="cls-2"><g class="cls-2"><path d="M5,39.61a1.59,1.59,0,0,1,.56,1.21,1.72,1.72,0,0,1-.27,1,1.8,1.8,0,0,1-.82.65,3.41,3.41,0,0,1-1.31.23H.77V36.19H3.08a3.23,3.23,0,0,1,1.23.21,1.76,1.76,0,0,1,.77.6,1.48,1.48,0,0,1,.27.88,1.4,1.4,0,0,1-.26.82,1.57,1.57,0,0,1-.8.56A1.86,1.86,0,0,1,5,39.61Zm-3.13-2.5v1.8H3a1.64,1.64,0,0,0,.91-.22A.8.8,0,0,0,4.21,38a.79.79,0,0,0-.29-.63,1.34,1.34,0,0,0-.83-.23Zm2.21,4.36a.89.89,0,0,0,.3-.69.9.9,0,0,0-.31-.72,1.45,1.45,0,0,0-.93-.26H1.91v1.94H3.16A1.38,1.38,0,0,0,4.12,41.47Z" transform="translate(-0.77 -0.01)"/><path d="M15.91,36.19,18.3,42.6v.07H17.1L16.49,41h-2.6l-.6,1.72H12.12V42.6l2.38-6.41ZM14.21,40h1.95l-1-2.78Z" transform="translate(-0.77 -0.01)"/><path d="M29.93,36.94a3.09,3.09,0,0,1,.9,2.49,3.29,3.29,0,0,1-.47,1.81,2.73,2.73,0,0,1-1.27,1.08,4.64,4.64,0,0,1-1.84.35H25.32V36.19h2A3.92,3.92,0,0,1,29.93,36.94ZM28.5,41.51a1.57,1.57,0,0,0,.85-.69,2.68,2.68,0,0,0,.3-1.39,2.34,2.34,0,0,0-.55-1.74,2.41,2.41,0,0,0-1.71-.53h-.93V41.7h.63A4.62,4.62,0,0,0,28.5,41.51Z" transform="translate(-0.77 -0.01)"/><path d="M44.88,36.19v6.48H43.74V38.12c-.11.3-.25.6-.4.92L42,41.73H41L39.68,39a9.88,9.88,0,0,1-.43-.94v4.57H38.11V36.19h1.27L40.83,39a13.73,13.73,0,0,1,.68,1.55A9.8,9.8,0,0,1,42.19,39l1.46-2.85Z" transform="translate(-0.77 -0.01)"/><path d="M52.52,42.67V36.19h1.14v6.48Z" transform="translate(-0.77 -0.01)"/><path d="M66.82,36.19v6.48H65.53L63.09,39c0-.06-.09-.15-.19-.3l-.25-.41a3.6,3.6,0,0,1-.2-.39v4.78H61.31V36.19h1.25l2.55,3.86.18.26c.08.13.16.25.22.36a2.59,2.59,0,0,1,.17.33V36.19Z" transform="translate(-0.77 -0.01)"/><path d="M79.3,36.19v1H77.16v5.5H76v-5.5H73.85v-1Z" transform="translate(-0.77 -0.01)"/><path d="M86.33,42.67V36.19h1.14v6.48Z" transform="translate(-0.77 -0.01)"/><path d="M96.18,42.37a2.67,2.67,0,0,1-1.06-1.19,4.27,4.27,0,0,1-.35-1.77,3.74,3.74,0,0,1,.43-1.88,2.73,2.73,0,0,1,1.15-1.11,3.52,3.52,0,0,1,1.6-.36,3.25,3.25,0,0,1,1.7.42,2.64,2.64,0,0,1,1,1.19,4.28,4.28,0,0,1,.35,1.78,3.7,3.7,0,0,1-.43,1.87,2.69,2.69,0,0,1-1.15,1.12,3.45,3.45,0,0,1-1.59.36A3.16,3.16,0,0,1,96.18,42.37Zm2.8-.82a1.81,1.81,0,0,0,.67-.84,3.17,3.17,0,0,0,.22-1.25,3.6,3.6,0,0,0-.21-1.29A1.69,1.69,0,0,0,98,37a2,2,0,0,0-1.11.3,1.84,1.84,0,0,0-.67.83A3.26,3.26,0,0,0,96,39.4a2.92,2.92,0,0,0,.49,1.79,1.69,1.69,0,0,0,1.44.66A2,2,0,0,0,99,41.55Z" transform="translate(-0.77 -0.01)"/><path d="M113.85,36.19v6.48h-1.29L110.12,39c0-.06-.09-.15-.19-.3s-.18-.28-.25-.41a3.6,3.6,0,0,1-.2-.39v4.78h-1.14V36.19h1.25l2.55,3.86.18.26c.08.13.16.25.22.36a2.59,2.59,0,0,1,.17.33V36.19Z" transform="translate(-0.77 -0.01)"/></g></g><g id="club" class="cls-2"><g class="cls-2"><path class="cls-3" d="M130.39,38.58a2,2,0,0,1,.28,1.09,1.78,1.78,0,0,1-.56,1.38,2,2,0,0,1-1.44.53,2.21,2.21,0,0,1-1.59-.57,2,2,0,0,1-.6-1.51,2.12,2.12,0,0,1,.2-.93h.65a1.68,1.68,0,0,0-.31,1,1.3,1.3,0,0,0,.44,1,1.68,1.68,0,0,0,1.16.39,1.58,1.58,0,0,0,1.11-.37,1.28,1.28,0,0,0,.4-1,1.53,1.53,0,0,0-.35-1Z" transform="translate(-0.77 -0.01)"/><path class="cls-3" d="M130.58,37v.64h-5.92V37Z" transform="translate(-0.77 -0.01)"/><path class="cls-3" d="M130.58,32.44v.64h-.64a1.32,1.32,0,0,1,.73,1.24c0,1-.57,1.43-1.7,1.43h-2.39v-.64h2.29c.84,0,1.26-.32,1.26-1a1,1,0,0,0-.34-.77,1.35,1.35,0,0,0-.91-.3h-2.3v-.64Z" transform="translate(-0.77 -0.01)"/><path class="cls-3" d="M130,30.49h.58v.64h-5.92V30.5h2.62a1.53,1.53,0,0,1-.8-1.39,1.46,1.46,0,0,1,.54-1.2,2.23,2.23,0,0,1,1.44-.44,2.51,2.51,0,0,1,1.61.49,1.64,1.64,0,0,1,.6,1.34A1.31,1.31,0,0,1,130,30.49Zm-1.61,0h.55a1.21,1.21,0,0,0,.85-.32,1.16,1.16,0,0,0-.1-1.73,2.05,2.05,0,0,0-1.24-.33,1.58,1.58,0,0,0-1,.31,1,1,0,0,0-.38.83,1.12,1.12,0,0,0,.39.9A1.43,1.43,0,0,0,128.39,30.5Z" transform="translate(-0.77 -0.01)"/></g></g><g id="Group_1489" data-name="Group 1489"><path id="Path_450" data-name="Path 450" class="cls-1" d="M28.78,12.69l.52-5.26A7.8,7.8,0,0,1,30,8.51a15.44,15.44,0,0,1,2.16,10.1l1-2.88c.09.24.17.48.25.73h0a98.74,98.74,0,0,1,3.4,13.76,51.84,51.84,0,0,0-2.49-5.28,90.62,90.62,0,0,0-6.45-10.41c-1.54-2.16-3.3-4.45-5.31-6.8,0,0,1.3-2.17-.11-7.72C22.52,0,28.35,2.74,28.78,12.69Z" transform="translate(-0.77 -0.01)"/><path id="Path_451" data-name="Path 451" class="cls-4" d="M37.13,18.24l1.77-4a6.47,6.47,0,0,1,.3,1,13,13,0,0,1-.91,8.58l1.59-2c0,.21,0,.43,0,.64h0A83.26,83.26,0,0,1,39,34.25a43.84,43.84,0,0,0-.61-4.84A75.25,75.25,0,0,0,36,19.48c-.67-2.12-1.48-4.39-2.46-6.78,0,0,1.59-1.39,1.91-6.16C35.44,6.54,39.36,10.23,37.13,18.24Z" transform="translate(-0.77 -0.01)"/></g><path id="Path_452" data-name="Path 452" class="cls-1" d="M65.91,10.42a14,14,0,0,0-23.83,9.87v11a3,3,0,0,0,3,3h0a3,3,0,0,0,3-3h0v-11a8,8,0,0,1,16,0v11a3,3,0,0,0,3,3h0a3,3,0,0,0,3-3h0v-11A13.43,13.43,0,0,0,65.91,10.42Z" transform="translate(-0.77 -0.01)"/><g id="Group_70" data-name="Group 70"><g id="Group_69" data-name="Group 69"><path id="Path_453" data-name="Path 453" class="cls-1" d="M98.58,19.26H89.27A2.26,2.26,0,0,0,87,21.48h0a2.26,2.26,0,0,0,2.22,2.3h3.89l-.23.81c-.85,2.94-3,4.5-6.34,4.5A8.38,8.38,0,0,1,78.09,21a8.81,8.81,0,0,1,2.2-6.77,8.34,8.34,0,0,1,6.2-2.6A7.86,7.86,0,0,1,91.8,13.5a2.59,2.59,0,0,0,3.19.19h0a2.56,2.56,0,0,0,.64-3.57,2.64,2.64,0,0,0-.31-.37,12.74,12.74,0,0,0-9.06-3.4,14,14,0,0,0-10.42,4.42,14.23,14.23,0,0,0-3.64,11c.58,7.38,6.24,12.53,13.78,12.53a12.78,12.78,0,0,0,9.74-4.2C98.1,27.3,99.09,23.58,98.58,19.26Z" transform="translate(-0.77 -0.01)"/></g></g><g id="Group_72" data-name="Group 72"><g id="Group_71" data-name="Group 71"><path id="Path_454" data-name="Path 454" class="cls-1" d="M119.28,25.63c-.27-3.5-2.2-5.64-6.66-7.42l-1.68-.63c-2.54-1-4-1.88-4.16-3.51a2.39,2.39,0,0,1,.62-1.8,3.29,3.29,0,0,1,2.5-1,4.7,4.7,0,0,1,3.25,1.31,2.49,2.49,0,0,0,2.88.3h0a2.53,2.53,0,0,0,1-3.44,2.36,2.36,0,0,0-.51-.63,9.77,9.77,0,0,0-6.85-2.5A9.16,9.16,0,0,0,102.85,9a6.8,6.8,0,0,0-1.73,5.29c.34,4.26,3.57,6.1,7,7.45l1.27.48c2.73,1.09,3.69,2,3.82,3.75a2.78,2.78,0,0,1-.67,2.21,4,4,0,0,1-3,1,5.18,5.18,0,0,1-4.07-1.86,2.51,2.51,0,0,0-3-.67l-.25.12A2.51,2.51,0,0,0,101,30.11a2.15,2.15,0,0,0,.34.54,10.7,10.7,0,0,0,8.29,3.6,10.83,10.83,0,0,0,7.8-3A7.07,7.07,0,0,0,119.28,25.63Z" transform="translate(-0.77 -0.01)"/></g></g></g></svg>