<svg xmlns="http://www.w3.org/2000/svg" viewBox="0 0 677.34 223.35"><defs><style>.cls-1,.cls-2{fill:#ff6a00;}.cls-1{stroke:#ff6a00;stroke-miterlimit:10;stroke-width:6px;}.cls-3{fill:#fff;}.cls-4{fill:#222;}</style></defs><g id="Layer_2" data-name="Layer 2"><g id="Layer_1-2" data-name="Layer 1"><path class="cls-1" d="M145,108.52V126.6q0,11.31-6.63,18.81t-18,7.5a22.58,22.58,0,0,1-17.72-7.72,27.05,27.05,0,0,1-6.86-18.59V46A10.77,10.77,0,0,0,85.1,35.23h-.2A10.77,10.77,0,0,0,74.13,46v80.6a26.73,26.73,0,0,1-7,18.71q-7,7.6-18.06,7.6-16.53,0-21.75-13.91-2.82-7.62-2.83-27.42V46A10.77,10.77,0,1,0,3,46v79.29q0,19.78,13.05,33.5T48.9,172.48q22.17,0,35.88-17.61,13.91,17.61,36.33,17.61,19.58,0,32.85-13.81a46.11,46.11,0,0,0,11-18.28C159.56,131,153,120.17,145,108.52Z"/><polygon class="cls-2" points="677.34 222.11 627.53 222.11 627.53 91.19 677.34 118.21 677.34 222.11"/><polygon class="cls-2" points="677.34 98.63 677.34 110.78 627.53 83.76 627.53 71.61 677.34 98.63"/><polygon class="cls-2" points="677.34 79.04 677.34 91.19 627.53 64.17 627.53 52.02 677.34 79.04"/><polygon class="cls-2" points="677.34 59.46 677.34 71.61 627.53 44.59 627.53 32.43 677.34 59.46"/><path d="M24.89,204.81A8.79,8.79,0,0,1,27.4,208a9.44,9.44,0,0,1,.78,3.78,10,10,0,0,1-1.6,5.68,10.37,10.37,0,0,1-4.74,3.75,19.33,19.33,0,0,1-7.63,1.34H.07V184.87H13.51a18.27,18.27,0,0,1,7.16,1.26,10,10,0,0,1,4.51,3.46,8.71,8.71,0,0,1,1.55,5.12,8,8,0,0,1-1.52,4.8,9.22,9.22,0,0,1-4.65,3.23A10.66,10.66,0,0,1,24.89,204.81ZM6.7,190.23v10.48h6.05a9.84,9.84,0,0,0,5.31-1.28,4.57,4.57,0,0,0,2-4.2,4.43,4.43,0,0,0-1.7-3.63,7.54,7.54,0,0,0-4.82-1.37Zm12.9,25.38a5.64,5.64,0,0,0-.09-8.18,8.14,8.14,0,0,0-5.41-1.54H6.7v11.29H14Q17.88,217.18,19.6,215.61Z"/><path d="M88.2,184.87l13.91,37.32v.4h-7l-3.55-10H76.44l-3.5,10H66.13v-.4L80,184.87Zm-9.9,22.36H89.65L84,191Z"/><path d="M169.81,189.27q5.24,4.39,5.23,14.46a19.25,19.25,0,0,1-2.7,10.57,16.35,16.35,0,0,1-7.42,6.26,27,27,0,0,1-10.71,2H143V184.87h11.88Q164.57,184.87,169.81,189.27Zm-8.33,26.57a9.06,9.06,0,0,0,5-4c1.16-1.92,1.74-4.62,1.74-8.12q0-7-3.22-10.1T155,190.52h-5.42V217h3.65A25.58,25.58,0,0,0,161.48,215.84Z"/><path d="M256.83,184.87v37.72h-6.64V196.11a52.94,52.94,0,0,1-2.35,5.35L240,217.12h-5.63l-7.76-15.66a57.33,57.33,0,0,1-2.52-5.47v26.6h-6.64V184.87h7.39l8.44,16.59a74.61,74.61,0,0,1,4,9,63.41,63.41,0,0,1,4-9l8.5-16.59Z"/><path d="M301.3,222.59V184.87h6.64v37.72Z"/><path d="M384.54,184.87v37.72H377l-14.17-21.42c-.19-.31-.56-.88-1.11-1.72s-1-1.62-1.48-2.38a22.62,22.62,0,0,1-1.17-2.3v27.82h-6.63V184.87h7.27l14.86,22.47c.19.27.53.79,1,1.55s.93,1.45,1.31,2.09a15.3,15.3,0,0,1,1,1.89v-28Z"/><path d="M457.19,184.87v5.71H444.73v32h-6.64v-32H425.46v-5.71Z"/><path d="M502.71,220.88a15.51,15.51,0,0,1-6.14-6.93,24.27,24.27,0,0,1-2.07-10.33A21.78,21.78,0,0,1,497,192.7a15.73,15.73,0,0,1,6.7-6.49,20.58,20.58,0,0,1,9.31-2.09,18.74,18.74,0,0,1,9.9,2.47,15.44,15.44,0,0,1,6.11,6.93,24.57,24.57,0,0,1,2,10.33,21.74,21.74,0,0,1-2.51,10.91,15.75,15.75,0,0,1-6.66,6.49,20.34,20.34,0,0,1-9.29,2.1A18.68,18.68,0,0,1,502.71,220.88Zm16.3-4.81a10.49,10.49,0,0,0,3.9-4.86,19.16,19.16,0,0,0,1.28-7.3A20.89,20.89,0,0,0,523,196.4a9.9,9.9,0,0,0-10-6.75,11.41,11.41,0,0,0-6.46,1.74,10.46,10.46,0,0,0-3.9,4.86,19.06,19.06,0,0,0-1.28,7.31q0,6.57,2.85,10.42t8.38,3.84A11.28,11.28,0,0,0,519,216.07Z"/><path d="M605.56,184.87v37.72h-7.51l-14.17-21.42c-.19-.31-.56-.88-1.11-1.72s-1-1.62-1.48-2.38a22.52,22.52,0,0,1-1.16-2.3v27.82h-6.64V184.87h7.28l14.85,22.47c.19.27.54.79,1,1.55s.93,1.45,1.31,2.09a17,17,0,0,1,1,1.89v-28Z"/><path class="cls-3" d="M669.48,194a15.92,15.92,0,0,1,1.38,6.83c0,7.17-4.86,11.83-12.13,11.83s-12.62-5-12.62-12.77a14.44,14.44,0,0,1,1.23-6l3.34,1a10,10,0,0,0-1.13,5c0,5.45,4,8.4,9,8.4,5.5,0,8.89-3.53,8.89-8.25a12.29,12.29,0,0,0-1.18-5.3Z"/><path class="cls-3" d="M635.51,188.9v-4.32h34.86v4.32Z"/><path class="cls-3" d="M663.89,157.43c2.45,0,4.61-.05,6.48-.2v3.83l-3.88.24v.1a9,9,0,0,1,4.42,7.86c0,3.73-2.06,8.2-10.41,8.2H646.6v-4.32h13.16c4.52,0,7.56-1.38,7.56-5.31a6.23,6.23,0,0,0-3.93-5.69,6.15,6.15,0,0,0-2.2-.39H646.6v-4.32Z"/><path class="cls-3" d="M670.37,150.46c-1.62-.1-4-.2-6.14-.2H635.51V146h14.92v-.1a8.85,8.85,0,0,1-4.37-8.1c0-5.9,4.91-10.07,12.13-10,8.5,0,12.72,5.35,12.72,10.66a8.47,8.47,0,0,1-4.47,7.95v.15l3.93.19ZM660.84,146a7.93,7.93,0,0,0,1.57-.2,6.66,6.66,0,0,0,5.06-6.48c0-4.52-3.68-7.22-9.13-7.22-4.77,0-8.84,2.46-8.84,7.07a6.88,6.88,0,0,0,5.3,6.58,8.36,8.36,0,0,0,1.77.25Z"/><path class="cls-2" d="M143,64.9,145.59,38a38,38,0,0,1,3.71,5.51c12.87,22.12,12.33,40.11,11,51.62l5.38-14.74c.43,1.21.85,2.45,1.28,3.72h0c5.8,17.32,12,40.34,17.38,70.38a271.34,271.34,0,0,0-12.73-27,472.91,472.91,0,0,0-33-53.22c-7.89-11.06-16.91-22.77-27.16-34.79,0,0,6.63-11.12-.57-39.48C110.94,0,140.76,14,143,64.9Z"/><path class="cls-4" d="M185.62,93.26l9-20.67a32.47,32.47,0,0,1,1.52,5.34c4.49,20.89-.59,35-4.61,43.83l8.09-10.3c0,1.07,0,2.16.05,3.28h0c.12,15.25-1,35.12-4.41,60.38a232.75,232.75,0,0,0-3.12-24.75,394.57,394.57,0,0,0-12.4-50.79c-3.4-10.83-7.54-22.46-12.56-34.65,0,0,8.14-7.11,9.77-31.5C177,33.44,197,52.3,185.62,93.26Z"/><path class="cls-2" d="M332.79,53.26q-20.93-20.9-50.48-20.9t-50.48,20.9q-20.9,20.91-20.91,50.48v56.1a15.3,15.3,0,0,0,15.29,15.29h0a15.3,15.3,0,0,0,15.29-15.29v-56.1a40.81,40.81,0,0,1,69.65-28.86,39.35,39.35,0,0,1,11.93,28.86v56.1a15.3,15.3,0,0,0,15.3,15.29h0a15.3,15.3,0,0,0,15.29-15.29v-56.1Q353.69,74.18,332.79,53.26Z"/><path class="cls-2" d="M499.78,98.45H452.2a11.57,11.57,0,0,0-11.56,11.35h0a11.56,11.56,0,0,0,11.56,11.77h19.71l-1.21,4.17c-4.37,15-15.57,23-32.4,23-23.56,0-41.35-17-43.25-41.43C394,94,398,81.64,406.29,72.67c7.91-8.54,19.15-13.25,31.68-13.25,10.69,0,19.67,3.17,27.14,9.61a13.27,13.27,0,0,0,16.32,1h0a13.13,13.13,0,0,0,1.68-20.14c-14.49-14-32.43-17.43-46.33-17.43-20.88,0-39.8,8-53.28,22.62-13.67,14.76-20.27,34.66-18.59,56,2.94,37.71,31.91,64.05,70.45,64.05,19.85,0,38-7.83,49.81-21.47C497.34,139.59,502.38,120.56,499.78,98.45Z"/><path class="cls-2" d="M605.62,131c-1.38-17.86-11.25-28.84-34-37.89L563,89.88c-13-5-20.62-9.59-21.27-17.94a12.1,12.1,0,0,1,3.18-9.22c2.94-3.18,7.47-4.93,12.75-4.93a24.33,24.33,0,0,1,16.62,6.7A12.79,12.79,0,0,0,589,66.06h0a12.91,12.91,0,0,0,2.4-20.84c-7.38-6.75-18.59-12.79-35.06-12.79-14.24,0-26.92,4.89-34.78,13.38C515,52.94,512,62.3,512.79,72.87,514.49,94.65,531,104,548.67,111l6.49,2.44c13.93,5.57,18.85,10.4,19.54,19.16.36,4.66-.8,8.46-3.45,11.32-3.2,3.47-8.5,5.28-15.36,5.28a26.34,26.34,0,0,1-20.8-9.51,12.91,12.91,0,0,0-15.31-3.38l-1.24.57A12.89,12.89,0,0,0,514,156.71c9.44,11.34,24.93,18.42,42.39,18.42,15.73,0,31-6,39.91-15.59C603.37,151.91,606.51,142.31,605.62,131Z"/></g></g></svg>