<svg xmlns="http://www.w3.org/2000/svg" width="16.85" height="11.848" viewBox="0 0 16.85 11.848">
  <path id="Icon_awesome-youtube" data-name="Icon awesome-youtube" d="M17.548,6.354a2.117,2.117,0,0,0-1.49-1.5A50.033,50.033,0,0,0,9.475,4.5a50.033,50.033,0,0,0-6.583.354,2.117,2.117,0,0,0-1.49,1.5,22.212,22.212,0,0,0-.352,4.082A22.212,22.212,0,0,0,1.4,14.518a2.086,2.086,0,0,0,1.49,1.475,50.033,50.033,0,0,0,6.583.354,50.033,50.033,0,0,0,6.583-.354,2.086,2.086,0,0,0,1.49-1.475,22.212,22.212,0,0,0,.352-4.082A22.211,22.211,0,0,0,17.548,6.354Zm-9.8,6.588V7.931l4.4,2.505-4.4,2.505Z" transform="translate(-1.05 -4.5)" fill="#ff6a00"/>
</svg>
