<svg xmlns="http://www.w3.org/2000/svg" width="13.785" height="12.767" viewBox="0 0 13.785 12.767">
  <g id="Group_1434" data-name="Group 1434" transform="translate(-3823.891 -3512.524) rotate(45)">
    <path id="Path_2137" data-name="Path 2137" d="M5197.847-219l.75.764c-.129.167-.268.349-.41.528q-1.351,1.7-2.7,3.4a2.064,2.064,0,0,1-1.29.818.91.91,0,0,1-1.113-1.072,1.941,1.941,0,0,1,.762-1.271q1.98-1.582,3.97-3.152A.17.17,0,0,1,5197.847-219Z" transform="translate(-0.922 -2.185)" fill="#ff6a00"/>
    <path id="Path_2138" data-name="Path 2138" d="M5196.975-219.686c-.362.283-.7.542-1.032.807-.977.777-1.959,1.548-2.923,2.339a6.723,6.723,0,0,0-.623.685.312.312,0,0,1-.165.1.912.912,0,0,1-1.076-1.156,1.9,1.9,0,0,1,.98-1.34c.676-.372,1.371-.708,2.063-1.049.66-.326,1.328-.638,1.989-.961a.175.175,0,0,1,.245.039C5196.6-220.039,5196.782-219.874,5196.975-219.686Z" transform="translate(-0.26 -1.745)" fill="#ff6a00"/>
    <path id="Path_2139" data-name="Path 2139" d="M5199.794-217.537c.2.2.388.393.568.593a.183.183,0,0,1,0,.157c-.366.769-.731,1.538-1.107,2.3-.294.6-.584,1.2-.908,1.779a1.941,1.941,0,0,1-1.34.982.916.916,0,0,1-1.16-1.074.2.2,0,0,1,.07-.136,4.11,4.11,0,0,0,1.11-1.108c.89-1.117,1.771-2.241,2.654-3.362C5199.711-217.441,5199.743-217.478,5199.794-217.537Z" transform="translate(-1.866 -2.684)" fill="#ff6a00"/>
    <path id="Path_2140" data-name="Path 2140" d="M5201.639-216.208c.2.206.394.392.575.585a.17.17,0,0,1,.018.136c-.306,1.1-.595,2.215-.931,3.31a1.962,1.962,0,0,1-1.54,1.411.913.913,0,0,1-1.021-.369.239.239,0,0,1-.022-.045c.19-.162.384-.311.559-.48a3.382,3.382,0,0,0,.624-.986q.833-1.7,1.659-3.4C5201.581-216.093,5201.6-216.138,5201.639-216.208Z" transform="translate(-2.85 -3.137)" fill="#ff6a00"/>
    <path id="Path_2141" data-name="Path 2141" d="M5195.85-221.016c-.619.3-1.188.567-1.754.845q-1.1.544-2.205,1.1a2.457,2.457,0,0,0-1.02.93.655.655,0,0,1-.052.068.832.832,0,0,1-.449-.717,1.723,1.723,0,0,1,.521-1.3,2.112,2.112,0,0,1,1.028-.621q1.584-.442,3.167-.885a.192.192,0,0,1,.213.057C5195.469-221.371,5195.65-221.207,5195.85-221.016Z" transform="translate(0 -1.293)" fill="#ff6a00"/>
    <path id="Path_2142" data-name="Path 2142" d="M5205.479-222.082l-2.657-2.66a1.832,1.832,0,0,1,1.754-.627,1.793,1.793,0,0,1,1.5,1.376A1.847,1.847,0,0,1,5205.479-222.082Z" transform="translate(-4.25)" fill="#222"/>
    <path id="Path_2143" data-name="Path 2143" d="M5201.149-223.142l.855-.849,2.635,2.635-.853.851Z" transform="translate(-3.679 -0.482)" fill="#222"/>
    <path id="Path_2144" data-name="Path 2144" d="M5201.861-220.652l.444.448-.856,1.107-.7-.7Z" transform="translate(-3.543 -1.621)" fill="#ff6a00"/>
    <path id="Path_2145" data-name="Path 2145" d="M5200.091-220.282l-.579-.588c.333-.159.669-.322,1.008-.479.359-.167.36-.165.636.121.017.017.033.037.062.071Z" transform="translate(-3.121 -1.344)" fill="#ff6a00"/>
    <path id="Path_2146" data-name="Path 2146" d="M5203.029-219.669c.107.116.205.215.295.322a.117.117,0,0,1,.011.1c-.2.431-.4.86-.607,1.289l-.573-.586Z" transform="translate(-4.023 -1.956)" fill="#ff6a00"/>
    <path id="Path_2147" data-name="Path 2147" d="M5198.225-221.979c.486-.127.935-.229,1.373-.364a.359.359,0,0,1,.451.131.992.992,0,0,0,.176.141c-.054.022-.073.028-.09.037-.412.2-.823.391-1.236.584a.14.14,0,0,1-.12,0C5198.6-221.615,5198.425-221.786,5198.225-221.979Z" transform="translate(-2.682 -1.034)" fill="#ff6a00"/>
    <path id="Path_2148" data-name="Path 2148" d="M5204.025-218.745l.058.043a.5.5,0,0,1,.2.661c-.139.393-.218.808-.336,1.26-.193-.2-.363-.378-.528-.557a.1.1,0,0,1-.013-.093C5203.607-217.866,5203.813-218.3,5204.025-218.745Z" transform="translate(-4.447 -2.272)" fill="#ff6a00"/>
  </g>
</svg>
