<svg xmlns="http://www.w3.org/2000/svg" width="49.556" height="23.218" viewBox="0 0 49.556 23.218">
  <path id="Path_2149" data-name="Path 2149" d="M6.277,20.406l3.082-7.051a10.769,10.769,0,0,1,.519,1.821A22.572,22.572,0,0,1,8.307,30.129l2.76-3.516c.009.365.012.739.016,1.121v0a144.184,144.184,0,0,1-1.505,20.6,78.446,78.446,0,0,0-1.064-8.442,134.263,134.263,0,0,0-4.23-17.327C3.124,18.871,1.713,14.9,0,10.744,0,10.744,2.778,8.318,3.332,0,3.332,0,10.169,6.432,6.277,20.406Z" transform="matrix(-0.259, 0.966, -0.966, -0.259, 49.556, 12.51)" fill="#ff6a00"/>
</svg>
